<svg width="452" height="365" viewBox="0 0 452 365" fill="none" xmlns="http://www.w3.org/2000/svg">
<g clip-path="url(#clip0_162_71)">
<path d="M100.312 179H80.25V158.938V138.875H60.1875H40.125V158.938V179H20.0625H0V158.938V138.875V118.812V98.75V78.6875V58.625V38.5625V18.5H20.0625H40.125H60.1875H80.25H100.312V38.5625H120.375V58.625V78.6875V98.75V118.812H100.312V138.875H120.375V158.938V179H100.312ZM60.1875 98.75H80.25V78.6875V58.625H60.1875H40.125V78.6875V98.75H60.1875ZM266.43 179H246.367V158.938V138.875V118.812H226.305H206.242V138.875V158.938V179H186.18H166.117V158.938V138.875V118.812V98.75V78.6875V58.625V38.5625V18.5H186.18H206.242V38.5625V58.625V78.6875H226.305H246.367V58.625V38.5625V18.5H266.43H286.492V38.5625V58.625V78.6875V98.75V118.812V138.875V158.938V179H266.43ZM412.485 179H392.422H372.36H352.297V158.938H332.235V138.875V118.812V98.75V78.6875V58.625V38.5625H352.297V18.5H372.36H392.422H412.485H432.547V38.5625H452.61V58.625V78.6875V98.75V118.812V138.875V158.938H432.547V179H412.485ZM392.422 138.875H412.485V118.812V98.75V78.6875V58.625H392.422H372.36V78.6875V98.75V118.812V138.875H392.422Z" fill="black"/>
<path d="M100.312 367H80.25V346.938H60.1875V326.875H40.125V346.938V367H20.0625H0V346.938V326.875V306.812V286.75V266.688V246.625V226.562V206.5H20.0625H40.125V226.562H60.1875V246.625H80.25V226.562V206.5H100.312H120.375V226.562V246.625V266.688V286.75V306.812V326.875V346.938V367H100.312ZM243.96 367H223.897H203.835H183.772V346.938H203.835V326.875V306.812V286.75V266.688V246.625V226.562H183.772V206.5H203.835H223.897H243.96H264.022V226.562H243.96V246.625V266.688V286.75V306.812V326.875V346.938H264.022V367H243.96ZM427.732 367H407.67V346.938V326.875H387.607H367.545V346.938V367H347.482H327.42V346.938V326.875V306.812H347.482V286.75V266.688H327.42V246.625V226.562V206.5H347.482H367.545V226.562V246.625H387.607H407.67V226.562V206.5H427.732H447.795V226.562V246.625V266.688H427.732V286.75V306.812H447.795V326.875V346.938V367H427.732Z" fill="#FF6B00"/>
</g>
<defs>
<clipPath id="clip0_162_71">
<rect width="452" height="365" fill="white"/>
</clipPath>
</defs>
</svg>
