<svg width="914" height="167" viewBox="0 0 914 167" fill="none" xmlns="http://www.w3.org/2000/svg">
<g clip-path="url(#clip0_146_71)">
<path d="M100.312 167H80.25V146.938V126.875H60.1875H40.125V146.938V167H20.0625H0V146.938V126.875V106.812V86.75V66.6875V46.625V26.5625V6.5H20.0625H40.125H60.1875H80.25H100.312V26.5625H120.375V46.625V66.6875V86.75V106.812H100.312V126.875H120.375V146.938V167H100.312ZM60.1875 86.75H80.25V66.6875V46.625H60.1875H40.125V66.6875V86.75H60.1875ZM266.43 167H246.367V146.938V126.875V106.812H226.305H206.242V126.875V146.938V167H186.18H166.117V146.938V126.875V106.812V86.75V66.6875V46.625V26.5625V6.5H186.18H206.242V26.5625V46.625V66.6875H226.305H246.367V46.625V26.5625V6.5H266.43H286.492V26.5625V46.625V66.6875V86.75V106.812V126.875V146.938V167H266.43ZM412.485 167H392.422H372.36H352.297V146.938H332.235V126.875V106.812V86.75V66.6875V46.625V26.5625H352.297V6.5H372.36H392.422H412.485H432.547V26.5625H452.61V46.625V66.6875V86.75V106.812V126.875V146.938H432.547V167H412.485ZM392.422 126.875H412.485V106.812V86.75V66.6875V46.625H392.422H372.36V66.6875V86.75V106.812V126.875H392.422ZM598.665 167H578.603V146.938H558.54V126.875H538.478V146.938V167H518.415H498.353V146.938V126.875V106.812V86.75V66.6875V46.625V26.5625V6.5H518.415H538.478V26.5625H558.54V46.625H578.603V26.5625V6.5H598.665H618.728V26.5625V46.625V66.6875V86.75V106.812V126.875V146.938V167H598.665ZM724.657 167H704.595H684.532H664.47V146.938H684.532V126.875V106.812V86.75V66.6875V46.625V26.5625H664.47V6.5H684.532H704.595H724.657H744.72V26.5625H724.657V46.625V66.6875V86.75V106.812V126.875V146.938H744.72V167H724.657ZM890.775 167H870.713V146.938V126.875H850.65H830.588V146.938V167H810.525H790.463V146.938V126.875V106.812H810.525V86.75V66.6875H790.463V46.625V26.5625V6.5H810.525H830.588V26.5625V46.625H850.65H870.713V26.5625V6.5H890.775H910.838V26.5625V46.625V66.6875H890.775V86.75V106.812H910.838V126.875V146.938V167H890.775Z" fill="white"/>
</g>
<defs>
<clipPath id="clip0_146_71">
<rect width="914" height="167" fill="white"/>
</clipPath>
</defs>
</svg>
