<svg width="193" height="254" viewBox="0 0 193 254" fill="none" xmlns="http://www.w3.org/2000/svg">
<g clip-path="url(#clip0_136_7)">
<path d="M189.159 136.392L121.628 15.1152C110.403 -5.0384 82.743 -5.0384 71.524 15.1152L3.99351 136.392C-2.69721 148.405 -0.840089 163.661 8.50911 173.51L76.0396 244.651C87.3795 256.597 105.773 256.597 117.112 244.651L184.643 173.51C193.992 163.661 195.849 148.405 189.159 136.392ZM51.2101 122.148C51.2101 122.148 51.6553 134.436 71.8801 146.616C71.8801 146.616 37.8033 152.157 26.9849 112.835L78.5963 20.1402C78.5963 20.1402 84.0468 8.9847 96.4234 8.9847C96.4234 8.9847 103.14 8.911 108.329 12.7836C92.2258 15.7785 79.0797 31.3024 79.0797 49.6269C79.0797 73.633 109.894 92.5806 130.284 105.116C134.501 107.709 138.018 110.148 140.161 111.455C151.018 118.054 150.592 124.205 150.439 125.786C150.286 127.367 149.428 128.908 147.475 128.908C145.834 128.908 144.511 127.508 144.511 125.786C144.511 124.071 145.828 122.677 147.456 122.664C140.689 107.569 108.953 111.307 75.1428 74.0216C75.2001 100.286 91.2909 110.269 91.2909 110.269C72.3571 114.255 61.6978 97.6123 61.6978 97.6123C61.9903 117.411 77.5596 126.804 77.5596 126.804C63.8157 129.015 51.2101 122.148 51.2101 122.148ZM178.633 167.212L166.765 179.714C136.339 163.132 100.5 159.896 100.5 159.896C89.0839 158.073 82.3551 151.407 82.3551 140.707C82.3551 131.112 89.739 123.34 98.8402 123.34L98.9674 123.334C130.634 123.334 145.357 147.943 145.357 147.943C153.021 160.465 156.246 163.648 159.979 161.731C154.318 155.574 155.145 145.986 154.662 142.295C154.617 141.94 154.986 141.685 155.279 141.873C167.515 150.308 168.972 156.639 167.172 160.365C183.632 157.343 160.399 132.586 158.516 129.967C158.421 129.833 158.395 129.665 158.44 129.504C160.488 122.114 156.646 112.761 145.077 104.152C133.509 95.542 87.5893 73.2578 87.5893 49.6403C87.5893 33.7546 99.8133 20.8772 114.893 20.8772H114.899L181.832 140.968C186.557 149.457 185.241 160.251 178.633 167.212Z" fill="black"/>
</g>
<defs>
<clipPath id="clip0_136_7">
<rect width="193" height="254" fill="white"/>
</clipPath>
</defs>
</svg>
