<svg width="64" height="64" viewBox="0 0 64 64" fill="none" xmlns="http://www.w3.org/2000/svg">
<g clip-path="url(#clip0_43_201)">
<path d="M13 21.5C24.9115 18.6459 32.7978 19.0311 40.9931 15.1486C49.1885 11.2661 55.4247 5.21939 58.2944 11.5C59.5166 14.1751 59 16.5 58.2944 19.0311C57.5887 21.5621 55.8943 36.3543 49 43.5C44.2103 48.4645 43.0659 48.9152 36.5 51C24.4053 54.8402 2.18154 49.9353 0.927093 37.3015C0.226642 30.2472 7.78299 22.7501 13 21.5Z" fill="url(#paint0_linear_43_201)" fill-opacity="0.9"/>
<path d="M19.1565 36.8453C19.5392 37.3013 19.9632 37.7251 20.4237 38.112C20.4223 38.074 20.4167 38.038 20.4167 38C20.4194 37.3234 20.6397 36.6634 21.0484 36.1068C21.4571 35.5502 22.0352 35.123 22.7067 34.8813C22.8302 34.8374 22.9382 34.7618 23.0185 34.6631C23.0987 34.5644 23.1481 34.4466 23.161 34.3229C23.1739 34.1992 23.1498 34.0746 23.0914 33.9631C23.0331 33.8516 22.9427 33.7577 22.8307 33.692C22.5244 33.5139 22.2719 33.2648 22.0973 32.9686C21.9226 32.6723 21.8318 32.3388 21.8333 32C21.8318 31.6116 21.9509 31.2313 22.1761 30.9057C22.4012 30.5802 22.7226 30.3238 23.1006 30.1679C23.4785 30.0121 23.8967 29.9636 24.3036 30.0286C24.7105 30.0935 25.0883 30.2689 25.3906 30.5333C25.8334 30.2941 26.3187 30.1326 26.8228 30.0567C26.5465 29.6933 26.1953 29.3861 25.7901 29.1532C25.385 28.9203 24.9341 28.7665 24.4645 28.7011C23.9949 28.6356 23.5161 28.6598 23.0566 28.7722C22.5971 28.8846 22.1663 29.0829 21.79 29.3553C21.4136 29.6276 21.0994 29.9685 20.866 30.3576C20.6326 30.7467 20.4848 31.1761 20.4314 31.6201C20.378 32.064 20.4201 32.5136 20.5552 32.942C20.6903 33.3703 20.9156 33.7687 21.2178 34.1133C20.1984 34.7556 19.4649 35.7278 19.1565 36.8453ZM35.8435 36.8453C35.5354 35.7273 34.8019 34.7546 33.7822 34.112C34.0834 33.7672 34.3078 33.369 34.4422 32.941C34.5765 32.513 34.6181 32.0639 34.5644 31.6205C34.5106 31.177 34.3627 30.7483 34.1294 30.3597C33.8961 29.9711 33.5822 29.6307 33.2063 29.3586C32.8304 29.0865 32.4002 28.8883 31.9413 28.7758C31.4824 28.6633 31.0042 28.6388 30.535 28.7037C30.0659 28.7687 29.6154 28.9217 29.2103 29.1538C28.8053 29.3859 28.4539 29.6922 28.1772 30.0547C28.6813 30.1306 29.1666 30.2921 29.6094 30.5313C29.8264 30.3435 30.0827 30.2003 30.3619 30.1109C30.641 30.0216 30.9369 29.988 31.2306 30.0123C31.5244 30.0367 31.8095 30.1185 32.0677 30.2524C32.326 30.3863 32.5517 30.5695 32.7305 30.7902C32.9092 31.0109 33.0371 31.2642 33.106 31.5341C33.1748 31.8039 33.1831 32.0843 33.1303 32.3573C33.0775 32.6304 32.9648 32.89 32.7993 33.1197C32.6338 33.3494 32.4193 33.5441 32.1693 33.6913C32.0573 33.7571 31.9669 33.851 31.9086 33.9624C31.8502 34.0739 31.8261 34.1985 31.839 34.3222C31.8519 34.4459 31.9013 34.5637 31.9815 34.6624C32.0618 34.7611 32.1698 34.8367 32.2933 34.8807C32.9649 35.1223 33.5431 35.5496 33.9518 36.1064C34.3605 36.6631 34.5807 37.3233 34.5833 38C34.5833 38.038 34.5777 38.074 34.5762 38.1113C35.0368 37.7246 35.4607 37.301 35.8435 36.8453Z" fill="black"/>
<path d="M32.4257 39.5227C32.3488 38.8385 32.1132 38.1786 31.7356 37.5895C31.358 37.0004 30.8477 36.4965 30.2405 36.1133C30.7613 35.5184 31.0447 34.7708 31.0417 34C31.0413 33.4659 30.9047 32.9397 30.6432 32.4658C30.3817 31.9918 30.003 31.5839 29.539 31.2764C29.075 30.9689 28.5393 30.7709 27.977 30.6989C27.4147 30.627 26.8423 30.6833 26.308 30.863C25.7736 31.0428 25.293 31.3408 24.9065 31.7319C24.5201 32.1229 24.2392 32.5957 24.0874 33.1103C23.9356 33.6249 23.9174 34.1663 24.0344 34.689C24.1513 35.2116 24.4 35.7001 24.7595 36.1133C24.1523 36.4965 23.642 37.0004 23.2644 37.5895C22.8868 38.1786 22.6512 38.8385 22.5742 39.5227C23.0239 39.7425 23.4898 39.9317 23.9682 40.0887C23.9668 40.0587 23.9583 40.0307 23.9583 40C23.9613 39.3234 24.1816 38.6635 24.5903 38.1069C24.999 37.5504 25.577 37.1231 26.2484 36.8813C26.3721 36.8374 26.4802 36.7618 26.5606 36.6631C26.641 36.5644 26.6905 36.4464 26.7034 36.3226C26.7163 36.1988 26.6921 36.074 26.6336 35.9625C26.5751 35.8509 26.4846 35.757 26.3723 35.6913C26.066 35.5135 25.8134 35.2646 25.6387 34.9684C25.4641 34.6722 25.3733 34.3387 25.375 34C25.375 33.4696 25.5989 32.9609 25.9974 32.5858C26.3959 32.2107 26.9364 32 27.5 32C28.0636 32 28.6041 32.2107 29.0026 32.5858C29.4011 32.9609 29.625 33.4696 29.625 34C29.6267 34.3387 29.5359 34.6722 29.3613 34.9684C29.1866 35.2646 28.934 35.5135 28.6277 35.6913C28.5154 35.757 28.4249 35.8509 28.3664 35.9625C28.3079 36.074 28.2837 36.1988 28.2966 36.3226C28.3095 36.4464 28.359 36.5644 28.4394 36.6631C28.5198 36.7618 28.6279 36.8374 28.7516 36.8813C29.423 37.1231 30.001 37.5504 30.4097 38.1069C30.8184 38.6635 31.0387 39.3234 31.0417 40C31.0417 40.0307 31.0332 40.0587 31.0325 40.0887C31.5107 39.9317 31.9763 39.7425 32.4257 39.5227Z" fill="black"/>
</g>
<defs>
<linearGradient id="paint0_linear_43_201" x1="29.9558" y1="8.78119" x2="29.9558" y2="52.2757" gradientUnits="userSpaceOnUse">
<stop stop-color="#FDBA51"/>
<stop offset="1" stop-color="#FA9C09"/>
</linearGradient>
<clipPath id="clip0_43_201">
<rect width="64" height="64" fill="white"/>
</clipPath>
</defs>
</svg>
