<svg width="64" height="64" viewBox="0 0 64 64" fill="none" xmlns="http://www.w3.org/2000/svg">
<g clip-path="url(#clip0_43_201)">
<path d="M53.5 53.5L62 16.1449H38.8214L32.5 2L27.2321 16.1449H3L11 53.5H20.5H27.2321L29.3393 59.4638L32.5 63L36.1875 59.4638L38 53.5H45.5H53.5Z" stroke="#DADADA"/>
<path d="M53.5 53.5L62 16.1449H38.8214L32.5 2L27.2321 16.1449H3L11 53.5H20.5H27.2321L29.3393 59.4638L32.5 63L36.1875 59.4638L38 53.5H45.5H53.5Z" stroke="url(#paint0_linear_43_201)"/>
<path d="M21.221 40.268C21.7612 40.9519 22.3598 41.5876 23.01 42.168C23.008 42.111 23 42.057 23 42C23.0039 40.9851 23.3148 39.9951 23.8918 39.1602C24.4689 38.3253 25.285 37.6845 26.233 37.322C26.4073 37.256 26.5598 37.1426 26.6731 36.9946C26.7865 36.8466 26.8561 36.6699 26.8743 36.4843C26.8925 36.2988 26.8585 36.1119 26.7761 35.9447C26.6937 35.7774 26.5662 35.6366 26.408 35.538C25.9756 35.2709 25.6191 34.8972 25.3726 34.4528C25.1261 34.0085 24.9978 33.5082 25 33C24.9978 32.4174 25.166 31.8469 25.4839 31.3586C25.8017 30.8704 26.2554 30.4857 26.789 30.2519C27.3227 30.0181 27.913 29.9455 28.4874 30.0428C29.0618 30.1402 29.5952 30.4034 30.022 30.8C30.6471 30.4412 31.3323 30.1989 32.044 30.085C31.6539 29.54 31.1581 29.0791 30.5861 28.7297C30.0141 28.3804 29.3776 28.1498 28.7146 28.0516C28.0516 27.9534 27.3756 27.9897 26.7269 28.1583C26.0782 28.3269 25.4701 28.6243 24.9388 29.0329C24.4075 29.4415 23.9638 29.9528 23.6343 30.5364C23.3048 31.1201 23.0961 31.7641 23.0208 32.4301C22.9454 33.0961 23.0048 33.7704 23.1956 34.4129C23.3863 35.0555 23.7044 35.653 24.131 36.17C22.6918 37.1335 21.6563 38.5917 21.221 40.268V40.268ZM44.779 40.268C44.3441 38.5909 43.3086 37.132 41.869 36.168C42.2942 35.6509 42.611 35.0535 42.8007 34.4115C42.9904 33.7695 43.049 33.0958 42.9732 32.4307C42.8974 31.7655 42.6885 31.1224 42.3592 30.5395C42.0298 29.9567 41.5866 29.446 41.056 29.0379C40.5253 28.6297 39.918 28.3325 39.2701 28.1637C38.6223 27.995 37.9471 27.9582 37.2847 28.0556C36.6224 28.153 35.9864 28.3826 35.4146 28.7307C34.8427 29.0788 34.3467 29.5384 33.956 30.082C34.6677 30.1959 35.3529 30.4381 35.978 30.797C36.2844 30.5152 36.6462 30.3004 37.0403 30.1664C37.4344 30.0323 37.8521 29.982 38.2668 30.0185C38.6815 30.0551 39.0839 30.1777 39.4485 30.3786C39.8131 30.5795 40.1318 30.8542 40.3842 31.1853C40.6366 31.5163 40.8171 31.8963 40.9143 32.3011C41.0115 32.7059 41.0232 33.1265 40.9487 33.536C40.8741 33.9455 40.715 34.335 40.4814 34.6796C40.2478 35.0241 39.9448 35.3161 39.592 35.537C39.4338 35.6356 39.3063 35.7764 39.2239 35.9437C39.1415 36.1109 39.1074 36.2978 39.1256 36.4833C39.1438 36.6689 39.2135 36.8456 39.3269 36.9936C39.4402 37.1416 39.5926 37.255 39.767 37.321C40.7151 37.6835 41.5314 38.3245 42.1084 39.1596C42.6855 39.9947 42.9963 40.9849 43 42C43 42.057 42.992 42.111 42.99 42.167C43.6401 41.5869 44.2387 40.9515 44.779 40.268V40.268Z" fill="black"/>
<path d="M39.954 44.284C39.8454 43.2578 39.5128 42.2679 38.9797 41.3842C38.4467 40.5006 37.7261 39.7447 36.869 39.17C37.6042 38.2776 38.0043 37.1562 38 36C37.9995 35.1989 37.8066 34.4096 37.4374 33.6986C37.0682 32.9877 36.5336 32.3758 35.8786 31.9146C35.2235 31.4534 34.4673 31.1563 33.6735 31.0484C32.8796 30.9405 32.0715 31.0249 31.3171 31.2946C30.5628 31.5642 29.8842 32.0111 29.3387 32.5978C28.7931 33.1844 28.3965 33.8935 28.1822 34.6655C27.9679 35.4374 27.9422 36.2495 28.1074 37.0334C28.2725 37.8173 28.6236 38.5501 29.131 39.17C28.2739 39.7447 27.5534 40.5006 27.0203 41.3842C26.4872 42.2679 26.1547 43.2578 26.046 44.284C26.6808 44.6138 27.3385 44.8975 28.014 45.133C28.012 45.088 28 45.046 28 45C28.0042 43.9852 28.3152 42.9953 28.8922 42.1604C29.4692 41.3255 30.2852 40.6847 31.233 40.322C31.4076 40.2562 31.5603 40.1428 31.6738 39.9946C31.7873 39.8465 31.8572 39.6696 31.8754 39.4839C31.8936 39.2982 31.8595 39.1111 31.7769 38.9437C31.6943 38.7764 31.5665 38.6355 31.408 38.537C30.9755 38.2703 30.6189 37.8968 30.3723 37.4526C30.1258 37.0083 29.9976 36.5081 30 36C30 35.2044 30.3161 34.4413 30.8787 33.8787C31.4413 33.3161 32.2044 33 33 33C33.7957 33 34.5587 33.3161 35.1213 33.8787C35.6839 34.4413 36 35.2044 36 36C36.0024 36.5081 35.8742 37.0083 35.6277 37.4526C35.3811 37.8968 35.0245 38.2703 34.592 38.537C34.4335 38.6355 34.3057 38.7764 34.2232 38.9437C34.1406 39.1111 34.1064 39.2982 34.1246 39.4839C34.1429 39.6696 34.2127 39.8465 34.3262 39.9946C34.4397 40.1428 34.5924 40.2562 34.767 40.322C35.7148 40.6847 36.5308 41.3255 37.1078 42.1604C37.6848 42.9953 37.9958 43.9852 38 45C38 45.046 37.988 45.088 37.987 45.133C38.6622 44.8975 39.3195 44.6138 39.954 44.284V44.284Z" fill="black"/>
</g>
<defs>
<linearGradient id="paint0_linear_43_201" x1="70.5" y1="19.5" x2="32.5" y2="63" gradientUnits="userSpaceOnUse">
<stop stop-color="#404FD3"/>
<stop offset="1" stop-color="#0BB5C0" stop-opacity="0.97"/>
</linearGradient>
<clipPath id="clip0_43_201">
<rect width="64" height="64" fill="white"/>
</clipPath>
</defs>
</svg>
