<svg width="64" height="64" viewBox="0 0 64 64" fill="none" xmlns="http://www.w3.org/2000/svg">
<path d="M53.5 53.5L62 16.1449H38.8214L32.5 2L27.2321 16.1449H3L11 53.5H20.5H27.2321L29.3393 59.4638L32.5 63L36.1875 59.4638L38 53.5H45.5H53.5Z" stroke="#DADADA"/>
<path d="M53.5 53.5L62 16.1449H38.8214L32.5 2L27.2321 16.1449H3L11 53.5H20.5H27.2321L29.3393 59.4638L32.5 63L36.1875 59.4638L38 53.5H45.5H53.5Z" stroke="url(#paint0_linear_43_189)"/>
<path d="M38.6804 35.6639C38.0528 36.0283 37.0338 36.0283 36.3994 35.6639C35.7718 35.2995 35.7651 34.7056 36.3927 34.3412C37.0203 33.9768 38.0393 33.9768 38.6736 34.3412C39.308 34.7056 39.3147 35.2995 38.6804 35.6639ZM26.6614 27.4038C26.0271 27.0394 25.0081 27.0394 24.3805 27.4038C23.7529 27.7682 23.7596 28.3621 24.3872 28.7265C25.0216 29.0909 26.0406 29.0909 26.6682 28.7265C27.2958 28.3621 27.289 27.7682 26.6614 27.4038ZM47.2306 35.016L37.5939 40.6172C36.5614 41.2178 34.8743 41.2178 33.835 40.6172L15.8437 30.2314C14.8045 29.6308 14.7977 28.6523 15.8302 28.0517L25.467 22.4505C26.4995 21.8498 28.1866 21.8498 29.2258 22.4505L47.2104 32.8363C48.2564 33.4369 48.2632 34.4154 47.2306 35.016ZM43.5932 35.259C43.4043 35.1915 43.2221 35.1173 43.0601 35.0228C42.0074 34.4154 42.0006 33.4301 43.0466 32.816C43.2086 32.7216 43.3773 32.6473 43.5662 32.5798L29.5633 24.4952C29.4755 24.5762 29.3676 24.6504 29.2461 24.7179C28.2001 25.3253 26.4927 25.3253 25.44 24.7179C25.3253 24.6504 25.224 24.583 25.1363 24.5087L19.3799 27.8559C19.5081 27.9099 19.6296 27.9639 19.7443 28.0314C20.7971 28.6388 20.8038 29.624 19.7578 30.2314C19.6363 30.2989 19.5081 30.3596 19.3731 30.4136L33.3356 38.478C33.4031 38.4307 33.4774 38.3767 33.5583 38.3295C34.6043 37.7221 36.3049 37.7221 37.3644 38.3295C37.5264 38.424 37.6614 38.5252 37.7761 38.6332L43.5932 35.259ZM15.3376 33.2614L34.1792 44.1399L34.4424 44.2951L34.8203 44.5111C35.3534 44.8215 36.2105 44.8215 36.7436 44.5111L47.5478 38.235C47.9865 37.9786 47.9865 37.5602 47.5411 37.3037C47.0957 37.0473 46.3803 37.0473 45.9349 37.3037L35.7718 43.2086L16.9775 32.3571C16.5388 32.1075 15.8302 32.067 15.3713 32.3032C14.8854 32.5596 14.8787 32.9982 15.3376 33.2614ZM47.5613 40.6982C47.1159 40.4418 46.4006 40.4418 45.9552 40.6982L35.7921 46.6098L16.9977 35.7516C16.559 35.5019 15.8505 35.4614 15.3916 35.6976C14.9057 35.9541 14.8922 36.386 15.3511 36.6491L34.1994 47.5344L34.4694 47.6896L34.8473 47.9055C35.3804 48.2159 36.2375 48.2159 36.7706 47.9055L47.5748 41.6295C48.0135 41.373 48.0067 40.9546 47.5613 40.6982ZM35.6368 33.9025C33.3761 35.2185 29.705 35.2252 27.4308 33.9093C25.1565 32.6001 25.1565 30.4743 27.4173 29.1584C29.678 27.8425 33.3491 27.8357 35.6234 29.1516C37.8976 30.4608 37.8976 32.5933 35.6368 33.9025ZM35.043 31.1627L35.0025 31.0884C34.7933 30.8185 34.5234 30.5756 34.1724 30.3731C34.0375 30.2921 33.889 30.2246 33.7338 30.1572C33.3289 29.9884 32.8835 29.867 32.3909 29.8332C31.7633 29.786 31.1694 29.867 30.616 30.0357L30.5485 30.0559L30.0492 29.7658C29.9682 29.7185 29.84 29.7185 29.7657 29.7658L29.4485 29.948C29.3676 29.9952 29.3676 30.0694 29.4485 30.1167L29.84 30.3394C29.7522 30.3866 29.6645 30.4406 29.5835 30.4878L29.1921 30.2651C29.1111 30.2179 28.9829 30.2179 28.9087 30.2651L28.5915 30.4473C28.5105 30.4946 28.5105 30.5688 28.5915 30.6161L29.0639 30.886C28.9829 30.9737 28.8952 31.0547 28.8277 31.1492C28.497 31.6216 28.4903 32.0872 28.8952 32.5529C29.0706 32.7486 29.2866 32.9173 29.5363 33.0657C29.7792 33.2074 30.0626 33.3289 30.3731 33.4301C30.5418 33.4841 30.7172 33.5314 30.8927 33.5719C31.0682 33.6056 31.1896 33.5719 31.2571 33.4774C31.3381 33.3762 31.4123 33.2682 31.4731 33.1602C31.5203 33.086 31.5068 33.0387 31.4326 32.9915C31.4123 32.978 31.3853 32.9645 31.3516 32.9578C31.1559 32.8903 30.9602 32.8295 30.7712 32.7553C30.6025 32.6878 30.4473 32.6203 30.3056 32.5394C30.1436 32.4449 30.0087 32.3436 29.9007 32.2222C29.6442 31.9387 29.7185 31.6688 29.9412 31.3989L30.9467 31.9792C31.0277 32.0265 31.1559 32.0265 31.2301 31.9792L31.5473 31.797C31.6283 31.7498 31.6283 31.6756 31.5473 31.6283L30.4406 30.994C30.5283 30.94 30.616 30.8927 30.697 30.8455L31.8037 31.4799C31.8847 31.5271 32.0129 31.5271 32.0872 31.4799L32.4044 31.2976C32.4853 31.2504 32.4853 31.1762 32.4044 31.1289L31.4393 30.5756L31.4528 30.5688C31.8307 30.4811 32.2086 30.4541 32.6001 30.5553C32.8565 30.6161 33.0724 30.7105 33.2614 30.8185C33.4031 30.8995 33.5313 30.994 33.6393 31.0952C33.7675 31.2032 33.8755 31.3246 33.997 31.4326C34.0172 31.4461 34.0307 31.4596 34.051 31.4731C34.1252 31.5203 34.2197 31.5271 34.3411 31.5001C34.5234 31.4596 34.6988 31.4191 34.8743 31.3719C35.0362 31.3314 35.0902 31.2639 35.043 31.1627Z" fill="black"/>
<defs>
<linearGradient id="paint0_linear_43_189" x1="70.5" y1="19.5" x2="32.5" y2="63" gradientUnits="userSpaceOnUse">
<stop stop-color="#404FD3"/>
<stop offset="1" stop-color="#0BB5C0" stop-opacity="0.97"/>
</linearGradient>
</defs>
</svg>
