<svg width="64" height="64" viewBox="0 0 64 64" fill="none" xmlns="http://www.w3.org/2000/svg">
<path d="M13 21.5C24.9115 18.6459 32.7978 19.0311 40.9931 15.1486C49.1885 11.2661 55.4247 5.21939 58.2944 11.5C59.5166 14.1751 59 16.5 58.2944 19.0311C57.5887 21.5621 55.8943 36.3543 49 43.5C44.2103 48.4645 43.0659 48.9152 36.5 51C24.4053 54.8402 2.18154 49.9353 0.927093 37.3015C0.226642 30.2472 7.78299 22.7501 13 21.5Z" fill="url(#paint0_linear_43_189)" fill-opacity="0.9"/>
<path d="M33.7869 34.8868C33.3685 35.1238 32.6892 35.1238 32.2663 34.8868C31.8479 34.6498 31.8434 34.2635 32.2618 34.0265C32.6802 33.7895 33.3595 33.7895 33.7824 34.0265C34.2053 34.2635 34.2098 34.6498 33.7869 34.8868ZM25.7743 29.5146C25.3514 29.2775 24.6721 29.2775 24.2537 29.5146C23.8352 29.7516 23.8397 30.1378 24.2581 30.3748C24.6811 30.6118 25.3604 30.6118 25.7788 30.3748C26.1972 30.1378 26.1927 29.7516 25.7743 29.5146ZM39.4871 34.4654L33.0626 38.1084C32.3743 38.499 31.2495 38.499 30.5567 38.1084L18.5625 31.3536C17.8696 30.963 17.8651 30.3265 18.5535 29.9359L24.978 26.293C25.6663 25.9023 26.7911 25.9023 27.4839 26.293L39.4736 33.0478C40.1709 33.4384 40.1754 34.0748 39.4871 34.4654ZM37.0622 34.6234C36.9362 34.5796 36.8147 34.5313 36.7067 34.4698C36.0049 34.0748 36.0004 33.434 36.6977 33.0346C36.8057 32.9731 36.9182 32.9249 37.0442 32.881L27.7088 27.6229C27.6504 27.6755 27.5784 27.7238 27.4974 27.7677C26.8001 28.1627 25.6618 28.1627 24.96 27.7677C24.8835 27.7238 24.816 27.6799 24.7575 27.6316L20.9199 29.8086C21.0054 29.8437 21.0864 29.8788 21.1629 29.9227C21.8647 30.3178 21.8692 30.9586 21.1719 31.3536C21.0909 31.3975 21.0054 31.437 20.9154 31.4721L30.2238 36.717C30.2687 36.6863 30.3182 36.6512 30.3722 36.6205C31.0696 36.2255 32.2033 36.2255 32.9096 36.6205C33.0176 36.6819 33.1076 36.7478 33.1841 36.818L37.0622 34.6234ZM18.2251 33.3243L30.7861 40.3995L30.9616 40.5004L31.2135 40.6409C31.5689 40.8428 32.1403 40.8428 32.4957 40.6409L39.6985 36.559C39.991 36.3922 39.991 36.1201 39.694 35.9533C39.3971 35.7865 38.9202 35.7865 38.6233 35.9533L31.8479 39.7938L19.3183 32.7361C19.0259 32.5737 18.5535 32.5474 18.2476 32.701C17.9236 32.8678 17.9191 33.1531 18.2251 33.3243ZM39.7075 38.161C39.4106 37.9943 38.9337 37.9943 38.6368 38.161L31.8614 42.0059L19.3318 34.9438C19.0394 34.7815 18.567 34.7551 18.261 34.9087C17.9371 35.0755 17.9281 35.3564 18.2341 35.5276L30.7996 42.6072L30.9796 42.7081L31.2315 42.8486C31.5869 43.0505 32.1583 43.0505 32.5137 42.8486L39.7165 38.7667C40.009 38.5999 40.0045 38.3278 39.7075 38.161ZM31.7579 33.7412C30.2508 34.5971 27.8033 34.6015 26.2872 33.7456C24.771 32.8941 24.771 31.5116 26.2782 30.6557C27.7853 29.7998 30.2328 29.7955 31.7489 30.6513C33.265 31.5028 33.265 32.8898 31.7579 33.7412ZM31.362 31.9593L31.335 31.911C31.1955 31.7354 31.0156 31.5774 30.7816 31.4458C30.6916 31.3931 30.5927 31.3492 30.4892 31.3053C30.2193 31.1956 29.9223 31.1166 29.5939 31.0946C29.1755 31.0639 28.7796 31.1166 28.4107 31.2263L28.3657 31.2395L28.0328 31.0507C27.9788 31.02 27.8933 31.02 27.8438 31.0507L27.6324 31.1692C27.5784 31.2 27.5784 31.2482 27.6324 31.279L27.8933 31.4238C27.8348 31.4545 27.7763 31.4896 27.7223 31.5204L27.4614 31.3755C27.4074 31.3448 27.3219 31.3448 27.2724 31.3755L27.061 31.494C27.007 31.5248 27.007 31.573 27.061 31.6038L27.3759 31.7793C27.3219 31.8364 27.2634 31.889 27.2185 31.9505C26.998 32.2577 26.9935 32.5606 27.2634 32.8634C27.3804 32.9907 27.5244 33.1004 27.6908 33.197C27.8528 33.2892 28.0418 33.3682 28.2487 33.434C28.3612 33.4691 28.4782 33.4998 28.5951 33.5262C28.7121 33.5481 28.7931 33.5262 28.8381 33.4647C28.8921 33.3989 28.9416 33.3287 28.982 33.2584C29.0135 33.2102 29.0045 33.1794 28.9551 33.1487C28.9416 33.1399 28.9236 33.1312 28.9011 33.1268C28.7706 33.0829 28.6401 33.0434 28.5142 32.9951C28.4017 32.9512 28.2982 32.9073 28.2037 32.8546C28.0958 32.7932 28.0058 32.7274 27.9338 32.6484C27.7628 32.464 27.8123 32.2885 27.9608 32.1129L28.6311 32.4904C28.6851 32.5211 28.7706 32.5211 28.8201 32.4904L29.0315 32.3718C29.0855 32.3411 29.0855 32.2928 29.0315 32.2621L28.2937 31.8495C28.3522 31.8144 28.4107 31.7837 28.4647 31.753L29.2025 32.1656C29.2565 32.1963 29.342 32.1963 29.3915 32.1656L29.6029 32.0471C29.6569 32.0163 29.6569 31.9681 29.6029 31.9373L28.9596 31.5774L28.9686 31.573C29.2205 31.516 29.4724 31.4984 29.7334 31.5643C29.9043 31.6038 30.0483 31.6652 30.1743 31.7354C30.2687 31.7881 30.3542 31.8495 30.4262 31.9154C30.5117 31.9856 30.5837 32.0646 30.6647 32.1348C30.6782 32.1436 30.6871 32.1524 30.7006 32.1612C30.7501 32.1919 30.8131 32.1963 30.8941 32.1787C31.0156 32.1524 31.1325 32.1261 31.2495 32.0953C31.3575 32.069 31.3935 32.0251 31.362 31.9593Z" fill="black"/>
<defs>
<linearGradient id="paint0_linear_43_189" x1="29.9558" y1="8.78119" x2="29.9558" y2="52.2757" gradientUnits="userSpaceOnUse">
<stop stop-color="#FDBA51"/>
<stop offset="1" stop-color="#FA9C09"/>
</linearGradient>
</defs>
</svg>
