<svg width="64" height="64" viewBox="0 0 64 64" fill="none" xmlns="http://www.w3.org/2000/svg">
<path d="M13 21.5C24.9115 18.6459 32.7978 19.0311 40.9931 15.1486C49.1885 11.2661 55.4247 5.21939 58.2944 11.5C59.5166 14.1751 59 16.5 58.2944 19.0311C57.5887 21.5621 55.8943 36.3543 49 43.5C44.2103 48.4645 43.0659 48.9152 36.5 51C24.4053 54.8402 2.18154 49.9353 0.927093 37.3015C0.226642 30.2472 7.78299 22.7501 13 21.5Z" fill="url(#paint0_linear_43_183)" fill-opacity="0.9"/>
<g clip-path="url(#clip0_43_183)">
<path d="M37.8182 25C36.6149 25 35.6364 25.9785 35.6364 27.1818C35.6364 27.5582 35.732 27.9124 35.9004 28.2218L32.3262 31.796C31.8335 31.4124 31.2167 31.1818 30.5455 31.1818C29.8742 31.1818 29.2575 31.4124 28.7644 31.7956L25.9756 29.0069C26.1036 28.7905 26.1818 28.5418 26.1818 28.2727C26.1818 27.4705 25.5295 26.8182 24.7273 26.8182C23.9251 26.8182 23.2727 27.4705 23.2727 28.2727C23.2727 29.0749 23.9251 29.7273 24.7273 29.7273C24.9964 29.7273 25.2451 29.6491 25.4615 29.5211L28.2502 32.3098C27.8669 32.8029 27.6364 33.4196 27.6364 34.0909C27.6364 34.7622 27.8669 35.3789 28.2502 35.8716L23.6451 40.4771C23.2575 40.1255 22.7451 39.9091 22.1818 39.9091C20.9785 39.9091 20 40.8876 20 42.0909C20 43.2942 20.9785 44.2727 22.1818 44.2727C23.3851 44.2727 24.3636 43.2942 24.3636 42.0909C24.3636 41.7145 24.268 41.3604 24.0996 41.0509L28.7647 36.3858C29.1669 36.6985 29.652 36.908 30.1822 36.9745V40.6691C29.152 40.8429 28.364 41.7389 28.364 42.8182C28.364 44.0215 29.3425 45 30.5458 45C31.7491 45 32.7276 44.0215 32.7276 42.8182C32.7276 41.7393 31.9396 40.8433 30.9095 40.6691V36.9745C31.4396 36.908 31.9247 36.6985 32.3269 36.3858L35.1156 39.1745C34.9873 39.3913 34.9091 39.64 34.9091 39.9091C34.9091 40.7113 35.5615 41.3636 36.3636 41.3636C37.1658 41.3636 37.8182 40.7113 37.8182 39.9091C37.8182 39.1069 37.1658 38.4545 36.3636 38.4545C36.0945 38.4545 35.8458 38.5327 35.6295 38.6607L32.8407 35.872C33.224 35.3789 33.4545 34.7622 33.4545 34.0909C33.4545 33.4196 33.224 32.8029 32.8407 32.3102L36.3553 28.7956C36.7425 29.1473 37.2549 29.3636 37.8182 29.3636C39.0215 29.3636 40 28.3851 40 27.1818C40 25.9785 39.0215 25 37.8182 25ZM24 28.2727C24 27.8716 24.3262 27.5455 24.7273 27.5455C25.1284 27.5455 25.4545 27.8716 25.4545 28.2727C25.4545 28.6738 25.1284 29 24.7273 29C24.3262 29 24 28.6738 24 28.2727ZM22.1818 43.5455C21.3796 43.5455 20.7273 42.8931 20.7273 42.0909C20.7273 41.2887 21.3796 40.6364 22.1818 40.6364C22.984 40.6364 23.6364 41.2887 23.6364 42.0909C23.6364 42.8931 22.984 43.5455 22.1818 43.5455ZM32 42.8182C32 43.6204 31.3476 44.2727 30.5455 44.2727C29.7433 44.2727 29.0909 43.6204 29.0909 42.8182C29.0909 42.016 29.7433 41.3636 30.5455 41.3636C31.3476 41.3636 32 42.016 32 42.8182ZM30.5455 36.2727C29.3422 36.2727 28.3636 35.2942 28.3636 34.0909C28.3636 32.8876 29.3422 31.9091 30.5455 31.9091C31.7487 31.9091 32.7273 32.8876 32.7273 34.0909C32.7273 35.2942 31.7487 36.2727 30.5455 36.2727ZM37.0909 39.9091C37.0909 40.3102 36.7647 40.6364 36.3636 40.6364C35.9625 40.6364 35.6364 40.3102 35.6364 39.9091C35.6364 39.508 35.9625 39.1818 36.3636 39.1818C36.7647 39.1818 37.0909 39.508 37.0909 39.9091ZM37.8182 28.6364C37.016 28.6364 36.3636 27.984 36.3636 27.1818C36.3636 26.3796 37.016 25.7273 37.8182 25.7273C38.6204 25.7273 39.2727 26.3796 39.2727 27.1818C39.2727 27.984 38.6204 28.6364 37.8182 28.6364Z" fill="black"/>
</g>
<defs>
<linearGradient id="paint0_linear_43_183" x1="29.9558" y1="8.78119" x2="29.9558" y2="52.2757" gradientUnits="userSpaceOnUse">
<stop stop-color="#FDBA51"/>
<stop offset="1" stop-color="#FA9C09"/>
</linearGradient>
<clipPath id="clip0_43_183">
<rect width="20" height="20" fill="white" transform="translate(20 25)"/>
</clipPath>
</defs>
</svg>
