<svg width="64" height="64" viewBox="0 0 64 64" fill="none" xmlns="http://www.w3.org/2000/svg">
<path d="M53.5 53.5L62 16.1449H38.8214L32.5 2L27.2321 16.1449H3L11 53.5H20.5H27.2321L29.3393 59.4638L32.5 63L36.1875 59.4638L38 53.5H45.5H53.5Z" stroke="#DADADA"/>
<path d="M53.5 53.5L62 16.1449H38.8214L32.5 2L27.2321 16.1449H3L11 53.5H20.5H27.2321L29.3393 59.4638L32.5 63L36.1875 59.4638L38 53.5H45.5H53.5Z" stroke="url(#paint0_linear_43_183)"/>
<path d="M24.3855 26.1432L24.1451 25.899L23.8305 26.0352C23.6329 26.1208 23.4197 26.1662 23.2071 26.1681C22.3017 26.1763 21.529 25.4158 21.5202 24.4379C21.5114 23.4603 22.2702 22.6861 23.1757 22.6779C24.0808 22.6698 24.8534 23.4301 24.8622 24.4079C24.8642 24.6347 24.8228 24.8622 24.7419 25.0729L24.6264 25.3735L24.8523 25.603L28.4605 29.2679L28.7685 29.5807L29.1186 29.3158C29.9228 28.7071 30.9085 28.3455 31.975 28.3359C33.4486 28.3227 34.8183 28.9723 35.7743 30.1382L36.1014 30.5372L36.49 30.1978L39.0794 27.9355L39.323 27.7227L39.2288 27.4134C39.1789 27.2493 39.1528 27.079 39.1512 26.9044C39.1424 25.9263 39.9012 25.1521 40.8062 25.144C41.7116 25.1358 42.4843 25.8964 42.4931 26.8743C42.5019 27.8518 41.7431 28.626 40.8376 28.6341C40.571 28.6365 40.3093 28.5725 40.0717 28.4468L39.7678 28.286L39.509 28.5122L36.7189 30.9497L36.4522 31.1827L36.5835 31.5116C36.8246 32.1156 36.9499 32.7532 36.9558 33.4117C36.9569 33.5337 36.9533 33.6603 36.945 33.7897L36.9207 34.1662L37.276 34.2928L38.8667 34.8601L39.2002 34.979L39.4231 34.7039C39.7391 34.3139 40.2012 34.0883 40.6837 34.084C41.5889 34.0758 42.3615 34.8363 42.3703 35.8141C42.3791 36.7918 41.6203 37.566 40.7151 37.5742C39.8627 37.5819 39.1247 36.9043 39.0371 36.0055L39.0063 35.6896L38.7074 35.583L37.2401 35.0598L36.781 34.8961L36.6056 35.3509C36.2551 36.2601 35.6533 37.0538 34.8846 37.6243L34.4937 37.9144L34.7733 38.3129L38.1273 43.0938L38.323 43.3727L38.6542 43.2926C38.7722 43.264 38.8929 43.249 39.0151 43.2479C39.9205 43.2398 40.6932 44.0003 40.702 44.978C40.7108 45.9558 39.9519 46.73 39.0465 46.7382C38.1414 46.7463 37.3688 45.9859 37.36 45.0081C37.357 44.6756 37.4419 44.3599 37.6052 44.0829L37.7688 43.8055L37.5838 43.5418L34.0667 38.5287L33.854 38.2255L33.5019 38.3406C33.0365 38.4929 32.5549 38.572 32.067 38.5764C30.85 38.5873 29.6898 38.1396 28.7734 37.3047L28.4355 36.997L28.0987 37.3059L25.576 39.6193L25.3402 39.8355L25.4378 40.1402C25.4927 40.3117 25.5214 40.4906 25.5231 40.6749C25.5319 41.6526 24.773 42.4269 23.8676 42.435C22.9625 42.4432 22.19 41.6828 22.1812 40.705C22.1724 39.7272 22.9311 38.953 23.8362 38.9449C24.0941 38.9425 24.3483 39.0027 24.5801 39.1207L24.8892 39.278L25.1449 39.0436L27.6961 36.7041L27.9923 36.4325L27.7907 36.0848C27.3377 35.3037 27.0945 34.415 27.0862 33.5005C27.0759 32.355 27.4306 31.2951 28.036 30.4369L28.2768 30.0956L27.9838 29.7979L24.3855 26.1432ZM31.9893 29.9255C30.0815 29.9426 28.5731 31.5557 28.5905 33.4869C28.6078 35.4182 30.145 37.0039 32.0528 36.9868C33.9605 36.9696 35.4689 35.3565 35.4516 33.4252C35.4342 31.4939 33.897 29.9083 31.9893 29.9255Z" fill="#FFFAFA" stroke="black"/>
<defs>
<linearGradient id="paint0_linear_43_183" x1="70.5" y1="19.5" x2="32.5" y2="63" gradientUnits="userSpaceOnUse">
<stop stop-color="#404FD3"/>
<stop offset="1" stop-color="#0BB5C0" stop-opacity="0.97"/>
</linearGradient>
</defs>
</svg>
