<svg width="64" height="64" viewBox="0 0 64 64" fill="none" xmlns="http://www.w3.org/2000/svg">
<path d="M13 21.5C24.9115 18.6459 32.7978 19.0311 40.9931 15.1486C49.1885 11.2661 55.4247 5.21939 58.2944 11.5C59.5166 14.1751 59 16.5 58.2944 19.0311C57.5887 21.5621 55.8943 36.3543 49 43.5C44.2103 48.4645 43.0659 48.9152 36.5 51C24.4053 54.8402 2.18154 49.9353 0.927093 37.3015C0.226642 30.2472 7.78299 22.7501 13 21.5Z" fill="url(#paint0_linear_43_177)" fill-opacity="0.9"/>
<g clip-path="url(#clip0_43_177)">
<path d="M29 43.64C28.2969 43.64 27.7198 43.0899 27.6753 42.398C25.8078 42.065 24.1113 41.0148 22.9723 39.4882C22.7641 39.6238 22.5161 39.7025 22.25 39.7025C21.5182 39.7025 20.9225 39.1068 20.9225 38.375C20.9225 37.8041 21.2848 37.3164 21.791 37.1291C21.5879 36.4411 21.485 35.7251 21.485 35H21.89C21.89 35.6981 21.9907 36.3871 22.1898 37.0492C22.6516 37.0278 23.0808 37.2534 23.3328 37.6072L25.6447 36.4513L24.3211 33.9701L24.6789 33.7794L26.0069 36.2696L34.4861 32.03C34.445 31.9029 34.4225 31.7662 34.4225 31.625C34.4225 31.3055 34.5361 31.0119 34.7251 30.7824C33.6536 29.3311 32.0527 28.3304 30.2887 28.0059C30.1453 28.5847 29.6216 29.015 29 29.015C28.3779 29.015 27.8542 28.5847 27.7113 28.0064C26.5897 28.2123 25.5266 28.6904 24.6249 29.3953L24.3751 29.0763C25.3381 28.3231 26.4755 27.8152 27.6753 27.6014C27.7198 26.9096 28.2969 26.36 29 26.36C29.7031 26.36 30.2803 26.9096 30.3247 27.6014C32.1911 27.9344 33.8881 28.9846 35.0278 30.5113C35.2359 30.3763 35.4839 30.2975 35.75 30.2975C36.4824 30.2975 37.0775 30.8932 37.0775 31.625C37.0775 32.1959 36.7153 32.6836 36.209 32.8704C36.4115 33.5589 36.515 34.2744 36.515 35H36.11C36.11 34.3014 36.0093 33.6129 35.8108 32.9508C35.3574 32.9812 34.9198 32.7466 34.6678 32.3923L26.1976 36.6273L28.5613 41.0593C28.6991 41.0109 28.8464 40.9844 29 40.9844C29.6216 40.9844 30.1453 41.4148 30.2887 41.993C31.4092 41.7877 32.4729 41.3101 33.3751 40.6048L33.6243 40.9231C32.6602 41.6769 31.5228 42.1843 30.3247 42.398C30.2803 43.091 29.7031 43.64 29 43.64ZM29 41.39C28.4915 41.39 28.0775 41.8034 28.0775 42.3125C28.0775 42.8216 28.4915 43.235 29 43.235C29.5085 43.235 29.9225 42.8216 29.9225 42.3125C29.9225 41.8034 29.5085 41.39 29 41.39ZM23.2754 39.2171C24.3464 40.6678 25.9473 41.669 27.7113 41.9936C27.7861 41.6926 27.9633 41.4316 28.2041 41.2511L25.8354 36.8096L23.5145 37.9694C23.555 38.0971 23.5775 38.2333 23.5775 38.375C23.5775 38.6945 23.4639 38.9881 23.2754 39.2171ZM22.25 37.4525C21.7415 37.4525 21.3275 37.8659 21.3275 38.375C21.3275 38.8841 21.7415 39.2975 22.25 39.2975C22.7585 39.2975 23.1725 38.8835 23.1725 38.375C23.1725 37.8665 22.7585 37.4525 22.25 37.4525ZM35.75 30.7025C35.2415 30.7025 34.8275 31.1165 34.8275 31.625C34.8275 32.1335 35.2409 32.5475 35.75 32.5475C36.2591 32.5475 36.6725 32.1335 36.6725 31.625C36.6725 31.1165 36.2585 30.7025 35.75 30.7025ZM29 26.765C28.4915 26.765 28.0775 27.179 28.0775 27.6875C28.0775 28.196 28.4915 28.61 29 28.61C29.5085 28.61 29.9225 28.196 29.9225 27.6875C29.9225 27.179 29.5085 26.765 29 26.765ZM36.875 40.265H34.625V39.86H36.875V40.265ZM37.64 39.5H37.235V37.25H37.6406L37.64 39.5ZM34.265 39.5H33.86V37.25H34.2656L34.265 39.5ZM36.875 36.89H34.625V36.485H36.875V36.89ZM23.375 33.515H21.125V33.11H23.375V33.515ZM24.14 32.75H23.735V30.5H24.14V32.75ZM20.765 32.75H20.36V30.5H20.765V32.75ZM23.375 30.14H21.125V29.735H23.375V30.14Z" fill="black"/>
</g>
<defs>
<linearGradient id="paint0_linear_43_177" x1="29.9558" y1="8.78119" x2="29.9558" y2="52.2757" gradientUnits="userSpaceOnUse">
<stop stop-color="#FDBA51"/>
<stop offset="1" stop-color="#FA9C09"/>
</linearGradient>
<clipPath id="clip0_43_177">
<rect width="18" height="18" fill="white" transform="translate(20 26)"/>
</clipPath>
</defs>
</svg>
