<svg width="64" height="64" viewBox="0 0 64 64" fill="none" xmlns="http://www.w3.org/2000/svg">
<path d="M53.5 53.5L62 16.1449H38.8214L32.5 2L27.2321 16.1449H3L11 53.5H20.5H27.2321L29.3393 59.4638L32.5 63L36.1875 59.4638L38 53.5H45.5H53.5Z" stroke="#DADADA"/>
<path d="M53.5 53.5L62 16.1449H38.8214L32.5 2L27.2321 16.1449H3L11 53.5H20.5H27.2321L29.3393 59.4638L32.5 63L36.1875 59.4638L38 53.5H45.5H53.5Z" stroke="url(#paint0_linear_43_177)"/>
<g clip-path="url(#clip0_43_177)">
<path d="M33.5 45.5C32.5234 45.5 31.7219 44.7359 31.6602 43.775C29.0664 43.3125 26.7102 41.8539 25.1281 39.7336C24.8391 39.9219 24.4945 40.0313 24.125 40.0313C23.1086 40.0313 22.2812 39.2039 22.2812 38.1875C22.2812 37.3945 22.7844 36.7172 23.4875 36.457C23.2055 35.5016 23.0625 34.507 23.0625 33.5H23.625C23.625 34.4695 23.7648 35.4266 24.0414 36.3461C24.6828 36.3164 25.2789 36.6297 25.6289 37.1211L28.8398 35.5156L27.0016 32.0695L27.4984 31.8047L29.343 35.2633L41.1195 29.375C41.0625 29.1984 41.0312 29.0086 41.0312 28.8125C41.0312 28.3688 41.1891 27.9609 41.4516 27.6422C39.9633 25.6266 37.7398 24.2367 35.2898 23.7859C35.0906 24.5898 34.3633 25.1875 33.5 25.1875C32.6359 25.1875 31.9086 24.5898 31.7102 23.7867C30.1523 24.0727 28.6758 24.7367 27.4234 25.7156L27.0766 25.2727C28.4141 24.2266 29.9938 23.5211 31.6602 23.2242C31.7219 22.2633 32.5234 21.5 33.5 21.5C34.4766 21.5 35.2781 22.2633 35.3398 23.2242C37.932 23.6867 40.2891 25.1453 41.8719 27.2656C42.1609 27.0781 42.5055 26.9688 42.875 26.9688C43.8922 26.9688 44.7188 27.7961 44.7188 28.8125C44.7188 29.6055 44.2156 30.2828 43.5125 30.5422C43.7938 31.4984 43.9375 32.4922 43.9375 33.5H43.375C43.375 32.5297 43.2352 31.5734 42.9594 30.6539C42.3297 30.6961 41.7219 30.3703 41.3719 29.8781L29.6078 35.7602L32.8906 41.9156C33.082 41.8484 33.2867 41.8117 33.5 41.8117C34.3633 41.8117 35.0906 42.4094 35.2898 43.2125C36.8461 42.9273 38.3234 42.2641 39.5766 41.2844L39.9227 41.7266C38.5836 42.7734 37.0039 43.4781 35.3398 43.775C35.2781 44.7375 34.4766 45.5 33.5 45.5ZM33.5 42.375C32.7937 42.375 32.2187 42.9492 32.2187 43.6563C32.2187 44.3633 32.7937 44.9375 33.5 44.9375C34.2062 44.9375 34.7812 44.3633 34.7812 43.6563C34.7812 42.9492 34.2062 42.375 33.5 42.375ZM25.5492 39.357C27.0367 41.3719 29.2602 42.7625 31.7102 43.2133C31.8141 42.7953 32.0602 42.4328 32.3945 42.182L29.1047 36.0133L25.8813 37.6242C25.9375 37.8016 25.9688 37.9906 25.9688 38.1875C25.9688 38.6313 25.8109 39.0391 25.5492 39.357ZM24.125 36.9063C23.4188 36.9063 22.8437 37.4805 22.8437 38.1875C22.8437 38.8945 23.4188 39.4688 24.125 39.4688C24.8313 39.4688 25.4062 38.8938 25.4062 38.1875C25.4062 37.4813 24.8313 36.9063 24.125 36.9063ZM42.875 27.5313C42.1688 27.5313 41.5938 28.1063 41.5938 28.8125C41.5938 29.5188 42.168 30.0938 42.875 30.0938C43.582 30.0938 44.1562 29.5188 44.1562 28.8125C44.1562 28.1063 43.5813 27.5313 42.875 27.5313ZM33.5 22.0625C32.7937 22.0625 32.2187 22.6375 32.2187 23.3438C32.2187 24.05 32.7937 24.625 33.5 24.625C34.2062 24.625 34.7812 24.05 34.7812 23.3438C34.7812 22.6375 34.2062 22.0625 33.5 22.0625ZM44.4375 40.8125H41.3125V40.25H44.4375V40.8125ZM45.5 39.75H44.9375V36.625H45.5008L45.5 39.75ZM40.8125 39.75H40.25V36.625H40.8133L40.8125 39.75ZM44.4375 36.125H41.3125V35.5625H44.4375V36.125ZM25.6875 31.4375H22.5625V30.875H25.6875V31.4375ZM26.75 30.375H26.1875V27.25H26.75C26.75 27.25 26.75 30.375 26.75 30.375ZM22.0625 30.375H21.5V27.25H22.0625V30.375V30.375ZM25.6875 26.75H22.5625V26.1875H25.6875V26.75Z" fill="black"/>
</g>
<defs>
<linearGradient id="paint0_linear_43_177" x1="70.5" y1="19.5" x2="32.5" y2="63" gradientUnits="userSpaceOnUse">
<stop stop-color="#404FD3"/>
<stop offset="1" stop-color="#0BB5C0" stop-opacity="0.97"/>
</linearGradient>
<clipPath id="clip0_43_177">
<rect width="25" height="25" fill="white" transform="translate(21 21)"/>
</clipPath>
</defs>
</svg>
