<svg width="64" height="64" viewBox="0 0 64 64" fill="none" xmlns="http://www.w3.org/2000/svg">
<path d="M13 21.5C24.9115 18.6459 32.7978 19.0311 40.9931 15.1486C49.1885 11.2661 55.4247 5.21939 58.2944 11.5C59.5166 14.1751 59 16.5 58.2944 19.0311C57.5887 21.5621 55.8943 36.3543 49 43.5C44.2103 48.4645 43.0659 48.9152 36.5 51C24.4053 54.8402 2.18154 49.9353 0.927093 37.3015C0.226642 30.2472 7.78299 22.7501 13 21.5Z" fill="url(#paint0_linear_43_195)" fill-opacity="0.9"/>
<path d="M21 30.5H33.6M30.8 27L34.3 30.5L30.8 34M35 37.5H22.4M25.2 34L21.7 37.5L25.2 41" stroke="black" stroke-width="2"/>
<defs>
<linearGradient id="paint0_linear_43_195" x1="29.9558" y1="8.78119" x2="29.9558" y2="52.2757" gradientUnits="userSpaceOnUse">
<stop stop-color="#FDBA51"/>
<stop offset="1" stop-color="#FA9C09"/>
</linearGradient>
</defs>
</svg>
