<svg width="64" height="64" viewBox="0 0 64 64" fill="none" xmlns="http://www.w3.org/2000/svg">
<path d="M13 21.5C24.9115 18.6459 32.7978 19.0311 40.9931 15.1486C49.1885 11.2661 55.4247 5.21939 58.2944 11.5C59.5166 14.1751 59 16.5 58.2944 19.0311C57.5887 21.5621 55.8943 36.3543 49 43.5C44.2103 48.4645 43.0659 48.9152 36.5 51C24.4053 54.8402 2.18154 49.9353 0.927093 37.3015C0.226642 30.2472 7.78299 22.7501 13 21.5Z" fill="url(#paint0_linear_39_135)" fill-opacity="0.9"/>
<path d="M37.81 34.5H37.25V34.15C37.25 33.94 37.11 33.8 36.9 33.8H35.15C34.94 33.8 34.8 33.94 34.8 34.15V34.5H33.75V27.15C33.75 26.94 33.61 26.8 33.4 26.8H32.35V26.45C32.35 26.24 32.21 26.1 32 26.1H30.25C30.04 26.1 29.9 26.24 29.9 26.45V26.8H27.1V26.45C27.1 26.24 26.96 26.1 26.75 26.1H25C24.79 26.1 24.65 26.24 24.65 26.45V26.8H23.6C23.39 26.8 23.25 26.94 23.25 27.15V34.5H22.2V34.15C22.2 33.94 22.0601 33.8 21.8501 33.8H20.1C19.89 33.8 19.75 33.94 19.75 34.15V34.5H19.19C18.56 34.5 18 35.095 18 35.795V41.85C18 42.515 18.385 42.9 19.05 42.9H20.1C20.31 42.9 20.45 42.76 20.45 42.55V42.2H21.5V42.55C21.5 42.76 21.64 42.9 21.85 42.9H25C25.21 42.9 25.35 42.76 25.35 42.55V42.2H26.4V42.55C26.4 42.76 26.5399 42.9 26.7499 42.9H27.7999C28.0892 42.9 28.3253 42.827 28.5 42.69C28.6746 42.827 28.9107 42.9 29.2 42.9H30.25C30.46 42.9 30.6 42.76 30.6 42.55V42.2H31.65V42.55C31.65 42.76 31.7899 42.9 31.9999 42.9H35.1499C35.3599 42.9 35.4999 42.76 35.4999 42.55V42.2H36.5499V42.55C36.5499 42.76 36.6899 42.9 36.8999 42.9H37.8099C38.475 42.9 39 42.375 39 41.71V35.795C39 35.095 38.44 34.5 37.81 34.5ZM23.95 27.5H25C25.21 27.5 25.35 27.36 25.35 27.15V26.8H26.4V27.15C26.4 27.36 26.54 27.5 26.75 27.5H30.25C30.46 27.5 30.6 27.36 30.6 27.15V26.8H31.65V27.15C31.65 27.36 31.7899 27.5 31.9999 27.5H33.0499V34.5H29.34H27.8H23.95V27.5H23.95ZM27.8 42.2H27.1V41.85C27.1 41.64 26.96 41.5 26.75 41.5H25C24.79 41.5 24.65 41.64 24.65 41.85V42.2H22.2V41.85C22.2 41.64 22.06 41.5 21.85 41.5H20.1C19.89 41.5 19.75 41.64 19.75 41.85V42.2H19.05C18.77 42.2 18.7 42.13 18.7 41.85V40.8H20.1C20.31 40.8 20.45 40.66 20.45 40.45C20.45 40.24 20.31 40.1 20.1 40.1H18.7V39.4H19.4C19.61 39.4 19.75 39.26 19.75 39.05C19.75 38.84 19.61 38.7 19.4 38.7H18.7V35.795C18.7 35.48 18.945 35.2 19.19 35.2H20.1C20.31 35.2 20.45 35.06 20.45 34.85V34.5H21.5V34.85C21.5 35.06 21.64 35.2 21.85 35.2H23.6H27.8C28.08 35.2 28.15 35.27 28.15 35.55V41.85C28.15 42.13 28.08 42.2 27.8 42.2ZM38.3 41.71C38.3 41.99 38.09 42.2 37.81 42.2H37.25V41.85C37.25 41.64 37.11 41.5 36.9 41.5H35.15C34.94 41.5 34.8 41.64 34.8 41.85V42.2H32.35V41.85C32.35 41.64 32.21 41.5 32 41.5H30.25C30.04 41.5 29.9 41.64 29.9 41.85V42.2H29.2C28.92 42.2 28.85 42.13 28.85 41.85V35.55C28.85 35.235 29.165 35.2 29.34 35.2H33.4001H35.1501C35.3601 35.2 35.5001 35.06 35.5001 34.85V34.5H36.5501V34.85C36.5501 35.06 36.69 35.2 36.9 35.2H37.8101C38.055 35.2 38.3001 35.515 38.3001 35.795V41.71H38.3Z" fill="black"/>
<defs>
<linearGradient id="paint0_linear_39_135" x1="29.9558" y1="8.78119" x2="29.9558" y2="52.2757" gradientUnits="userSpaceOnUse">
<stop stop-color="#FDBA51"/>
<stop offset="1" stop-color="#FA9C09"/>
</linearGradient>
</defs>
</svg>
