<svg width="64" height="64" viewBox="0 0 64 64" fill="none" xmlns="http://www.w3.org/2000/svg">
<path d="M53.5 53.5L62 16.1449H38.8214L32.5 2L27.2321 16.1449H3L11 53.5H20.5H27.2321L29.3393 59.4638L32.5 63L36.1875 59.4638L38 53.5H45.5H53.5Z" stroke="url(#paint0_linear_39_135)"/>
<path d="M44.4134 34H43.6667V33.5334C43.6667 33.2534 43.4801 33.0667 43.2001 33.0667H40.8667C40.5867 33.0667 40.4001 33.2534 40.4001 33.5334V34H39V24.2C39 23.92 38.8134 23.7334 38.5334 23.7334H37.1334V23.2667C37.1334 22.9867 36.9467 22.8001 36.6667 22.8001H34.3334C34.0534 22.8001 33.8667 22.9867 33.8667 23.2667V23.7334H30.1334V23.2667C30.1334 22.9867 29.9467 22.8001 29.6667 22.8001H27.3334C27.0534 22.8001 26.8667 22.9867 26.8667 23.2667V23.7334H25.4667C25.1867 23.7334 25.0001 23.92 25.0001 24.2V34H23.6001V33.5334C23.6001 33.2534 23.4134 33.0667 23.1334 33.0667H20.8C20.52 33.0667 20.3334 33.2534 20.3334 33.5334V34H19.5866C18.7466 34 18 34.7934 18 35.7266V43.8C18 44.6866 18.5134 45.2 19.4 45.2H20.8C21.08 45.2 21.2666 45.0134 21.2666 44.7334V44.2667H22.6666V44.7334C22.6666 45.0134 22.8533 45.2 23.1333 45.2H27.3333C27.6133 45.2 27.7999 45.0134 27.7999 44.7334V44.2667H29.1999V44.7334C29.1999 45.0134 29.3866 45.2 29.6666 45.2H31.0666C31.4523 45.2 31.767 45.1027 31.9999 44.92C32.2328 45.1027 32.5476 45.2 32.9333 45.2H34.3333C34.6133 45.2 34.7999 45.0134 34.7999 44.7334V44.2667H36.1999V44.7334C36.1999 45.0134 36.3866 45.2 36.6666 45.2H40.8666C41.1466 45.2 41.3332 45.0134 41.3332 44.7334V44.2667H42.7332V44.7334C42.7332 45.0134 42.9199 45.2 43.1999 45.2H44.4132C45.3 45.2 46 44.5 46 43.6134V35.7266C46 34.7934 45.2534 34 44.4134 34ZM25.9334 24.6667H27.3334C27.6134 24.6667 27.8 24.48 27.8 24.2V23.7334H29.2V24.2C29.2 24.48 29.3866 24.6667 29.6666 24.6667H34.3333C34.6133 24.6667 34.7999 24.48 34.7999 24.2V23.7334H36.1999V24.2C36.1999 24.48 36.3866 24.6667 36.6666 24.6667H38.0666V34H33.12H31.0666H25.9333V24.6667H25.9334ZM31.0666 44.2666H30.1333V43.8C30.1333 43.52 29.9466 43.3334 29.6666 43.3334H27.3333C27.0533 43.3334 26.8666 43.52 26.8666 43.8V44.2666H23.6V43.8C23.6 43.52 23.4134 43.3334 23.1334 43.3334H20.8C20.52 43.3334 20.3334 43.52 20.3334 43.8V44.2666H19.4C19.0266 44.2666 18.9334 44.1733 18.9334 43.8V42.4H20.8C21.08 42.4 21.2666 42.2134 21.2666 41.9334C21.2666 41.6534 21.08 41.4667 20.8 41.4667H18.9334V40.5334H19.8667C20.1467 40.5334 20.3334 40.3467 20.3334 40.0667C20.3334 39.7867 20.1467 39.6001 19.8667 39.6001H18.9334V35.7267C18.9334 35.3067 19.26 34.9334 19.5867 34.9334H20.8C21.08 34.9334 21.2666 34.7467 21.2666 34.4667V34H22.6666V34.4666C22.6666 34.7466 22.8533 34.9333 23.1333 34.9333H25.4666H31.0666C31.44 34.9333 31.5333 35.0266 31.5333 35.3999V43.7999C31.5334 44.1734 31.44 44.2666 31.0666 44.2666ZM45.0666 43.6134C45.0666 43.9867 44.7866 44.2667 44.4133 44.2667H43.6666V43.8C43.6666 43.52 43.48 43.3334 43.2 43.3334H40.8666C40.5866 43.3334 40.4 43.52 40.4 43.8V44.2666H37.1334V43.8C37.1334 43.52 36.9467 43.3334 36.6667 43.3334H34.3334C34.0534 43.3334 33.8667 43.52 33.8667 43.8V44.2666H32.9334C32.56 44.2666 32.4667 44.1733 32.4667 43.8V35.4C32.4667 34.98 32.8867 34.9334 33.1201 34.9334H38.5334H40.8668C41.1468 34.9334 41.3334 34.7467 41.3334 34.4667V34H42.7334V34.4666C42.7334 34.7466 42.9201 34.9333 43.2001 34.9333H44.4134C44.7401 34.9333 45.0668 35.3533 45.0668 35.7266V43.6134H45.0666Z" fill="black"/>
<defs>
<linearGradient id="paint0_linear_39_135" x1="70.5" y1="19.5" x2="32.5" y2="63" gradientUnits="userSpaceOnUse">
<stop stop-color="#404FD3"/>
<stop offset="1" stop-color="#0BB5C0" stop-opacity="0.97"/>
</linearGradient>
</defs>
</svg>
