<svg width="2286" height="751" viewBox="0 0 2286 751" fill="none" xmlns="http://www.w3.org/2000/svg">
<g clip-path="url(#clip0_206_2)">
<path d="M80.7583 70.9648H168.062C194.812 70.9648 215.971 75.876 231.541 85.6982C252.125 98.6553 262.418 117.307 262.418 141.654C262.418 163.493 254.111 180.316 237.497 192.124C227.883 199.02 212.523 204.454 191.416 208.424V209.521C207.925 215.06 221.771 226.501 232.951 243.847C245.908 264.119 261.791 293.167 280.6 330.994H244.393C225.062 286.271 208.97 256.438 196.118 241.496C182.429 225.718 164.3 217.829 141.729 217.829H110.225V330.994H80.7583V70.9648ZM110.225 95.7295V194.004H157.717C179.869 194.004 197.319 189.929 210.067 181.779C223.756 173.106 230.6 160.149 230.6 142.908C230.6 111.456 208.03 95.7295 162.889 95.7295H110.225ZM290.976 70.9648H320.129V183.66H462.761V70.9648H491.914V330.994H462.761V208.738H320.129V330.994H290.976V70.9648ZM629.562 65.9492C654.013 65.9492 675.904 72.3232 695.235 85.0713C716.342 98.8643 731.807 118.404 741.63 143.691C748.317 161.142 751.661 180.211 751.661 200.901C751.661 228.278 746.018 252.625 734.733 273.941C723.343 295.466 707.304 311.663 686.614 322.53C669.269 331.621 650.042 336.166 628.935 336.166C600.199 336.166 575.383 327.963 554.484 311.558C535.466 296.72 521.987 276.814 514.046 251.841C508.925 236.062 506.365 219.083 506.365 200.901C506.365 157.85 519.636 123.629 546.177 98.2373C568.643 76.7119 596.438 65.9492 629.562 65.9492ZM628.621 91.3408C609.081 91.3408 591.788 97.3491 576.741 109.366C551.454 129.533 538.81 160.097 538.81 201.058C538.81 224.15 543.147 244.265 551.82 261.402C558.716 274.986 567.911 285.905 579.405 294.16C593.825 304.609 610.387 309.834 629.091 309.834C656.991 309.834 679.404 298.862 696.332 276.919C711.588 257.274 719.216 231.987 719.216 201.058C719.216 169.188 711.17 143.221 695.078 123.159C678.046 101.947 655.894 91.3408 628.621 91.3408ZM765.328 70.9648H806.394L905.923 224.412C918.148 243.325 929.799 263.857 940.875 286.01H941.816C940.144 242.854 939.308 213.022 939.308 196.512V70.9648H968.148V330.994H940.875L824.732 151.842C814.701 136.481 804.304 118.613 793.541 98.2373H791.974C793.646 123.524 794.482 154.559 794.482 191.34V330.994H765.328V70.9648ZM986.204 70.9648H1081.19V93.6919H1048.43V308.267H1081.19V330.994H986.204V308.267H1018.96V93.6919H986.204V70.9648ZM1085.92 70.9648H1122.91L1197.36 178.174L1271.81 70.9648H1308.8L1216.01 198.707L1317.11 330.994H1278.87L1197.36 218.299L1115.86 330.994H1077.61L1178.71 198.707L1085.92 70.9648ZM1402.75 70.9648H1433V304.348H1558.24V330.994H1402.75V70.9648ZM1636.32 69.7109H1666.57L1769.55 330.994H1736.79L1707.64 254.349H1595.26L1566.1 330.994H1533.35L1636.32 69.7109ZM1699.02 229.584L1671.75 157.641C1661.82 132.145 1655.29 112.918 1652.15 99.9614H1650.9C1647.76 112.187 1641.23 131.414 1631.31 157.641L1604.03 229.584H1699.02ZM1776.16 70.9648H1856.73C1879.61 70.9648 1898 73.5249 1911.9 78.645C1924.02 83.1382 1933.79 89.7734 1941.21 98.5508C1950.09 109 1954.53 121.539 1954.53 136.168C1954.53 153.932 1948.58 168.09 1936.66 178.644C1927.57 186.69 1915.35 192.228 1899.99 195.258V196.199C1918.48 199.751 1933.16 205.655 1944.03 213.91C1958.97 225.3 1966.45 240.294 1966.45 258.894C1966.45 286.584 1954.22 306.49 1929.77 318.611C1912.95 326.866 1891.89 330.994 1866.6 330.994H1776.16V70.9648ZM1805.32 95.1025V183.66H1852.5C1869.84 183.66 1884.84 180.995 1897.48 175.666C1914.3 168.561 1922.72 156.648 1922.72 139.93C1922.72 110.045 1900.04 95.1025 1854.69 95.1025H1805.32ZM1805.32 207.17V306.542H1862.84C1882.49 306.542 1897.85 303.669 1908.92 297.922C1913.31 295.728 1917.28 292.906 1920.83 289.458C1929.61 280.785 1934 270.127 1934 257.483C1934 240.765 1925.69 228.017 1909.08 219.239C1893.61 211.193 1875.28 207.17 1854.06 207.17H1805.32ZM1987.64 271.903C2009.89 296.981 2038.05 309.521 2072.12 309.521C2089.78 309.521 2103.47 305.863 2113.18 298.549C2124.26 290.189 2129.8 278.957 2129.8 264.85C2129.8 250.639 2124.36 239.25 2113.5 230.681C2104.62 223.68 2089.31 216.47 2067.57 209.051L2050.49 203.252C2029.38 196.042 2014.12 188.78 2004.72 181.465C1990.3 170.18 1983.09 155.081 1983.09 136.168C1983.09 115.061 1990.51 98.3418 2005.35 86.0117C2021.02 72.8457 2041.82 66.2627 2067.73 66.2627C2099.5 66.2627 2127.55 75.876 2151.9 95.1025L2136.22 117.516C2116.89 100.066 2094.01 91.3408 2067.57 91.3408C2050.02 91.3408 2036.54 95.416 2027.13 103.566C2018.77 110.881 2014.6 120.808 2014.6 133.347C2014.6 143.691 2018.3 152.312 2025.72 159.208C2033.87 166.836 2048.66 174.151 2070.08 181.152L2088.73 187.265C2114.02 195.52 2132.31 205.342 2143.59 216.731C2156.03 229.271 2162.24 244.788 2162.24 263.283C2162.24 286.793 2153.31 305.184 2135.44 318.455C2119.87 330.053 2098.55 335.853 2071.49 335.853C2028.75 335.853 1994.79 321.485 1969.61 292.75L1987.64 271.903ZM63.0068 374.992H134.614V392.126H109.918V553.893H134.614V571.026H63.0068V553.893H87.7031V392.126H63.0068V374.992ZM128.375 374.992H291.914V394.844H221.016V571.026H199.274V394.844H128.375V374.992ZM350.807 526.479C367.587 545.385 388.817 554.838 414.498 554.838C427.811 554.838 438.13 552.081 445.457 546.566C453.807 540.264 457.982 531.796 457.982 521.161C457.982 510.448 453.886 501.861 445.693 495.401C438.997 490.123 427.456 484.688 411.071 479.095L398.191 474.723C382.278 469.287 370.777 463.812 363.687 458.298C352.816 449.79 347.38 438.407 347.38 424.148C347.38 408.236 352.974 395.632 364.16 386.336C375.976 376.41 391.653 371.447 411.189 371.447C435.137 371.447 456.288 378.695 474.643 393.189L462.827 410.087C448.253 396.931 431.001 390.354 411.071 390.354C397.837 390.354 387.674 393.426 380.585 399.57C374.282 405.085 371.131 412.568 371.131 422.021C371.131 429.82 373.928 436.319 379.521 441.519C385.666 447.269 396.812 452.784 412.962 458.062L427.023 462.67C446.087 468.893 459.873 476.298 468.38 484.885C477.755 494.338 482.442 506.036 482.442 519.979C482.442 537.704 475.707 551.569 462.236 561.573C450.498 570.317 434.428 574.689 414.025 574.689C381.806 574.689 356.203 563.858 337.218 542.194L350.807 526.479ZM557.5 424.621C576.957 424.621 593.422 431.238 606.892 444.473C621.151 458.416 628.28 476.771 628.28 499.537C628.28 512.85 625.838 524.824 620.954 535.459C614.652 549.087 605.081 559.407 592.24 566.418C581.605 572.247 569.868 575.162 557.027 575.162C533.867 575.162 515.512 566.615 501.963 549.521C491.328 536.129 486.011 519.467 486.011 499.537C486.011 473.541 495.07 453.493 513.188 439.392C525.871 429.545 540.642 424.621 557.5 424.621ZM556.909 442.818C542.493 442.818 530.598 448.805 521.223 460.779C513.11 471.099 509.053 484.136 509.053 499.892C509.053 511.078 511.14 520.964 515.315 529.551C519.254 537.822 524.808 544.321 531.976 549.048C539.539 554.011 547.968 556.492 557.263 556.492C568.528 556.492 578.454 552.829 587.041 545.503C599.172 535.026 605.238 519.783 605.238 499.773C605.238 482.837 600.551 469.051 591.177 458.416C581.96 448.018 570.537 442.818 556.909 442.818ZM642.011 364.121H664.226V548.339C664.226 551.411 665.683 552.947 668.598 552.947H687.504L685.022 571.026H662.571C648.864 571.026 642.011 564.33 642.011 550.938V364.121ZM694.381 428.284H716.36V515.607C716.36 541.84 726.6 554.956 747.082 554.956C755.196 554.956 763.153 552.435 770.951 547.394C781.192 540.698 789.07 531.087 794.584 518.562V428.284H817.035V571.026H795.766V544.912C788.597 554.602 780.129 561.967 770.361 567.009C761.616 571.499 752.675 573.744 743.537 573.744C725.498 573.744 712.184 567.678 703.598 555.547C697.453 546.882 694.381 534.553 694.381 518.562V428.284ZM874.723 384.445V428.284H918.916V445.182H874.723V534.041C874.723 540.816 875.314 545.66 876.495 548.575C878.544 553.696 882.679 556.256 888.903 556.256C897.095 556.256 905.328 553.42 913.599 547.748L919.744 563.464C909.266 570.475 897.804 573.98 885.358 573.98C863.931 573.98 853.217 561.613 853.217 536.877V445.182H819.54V428.284H853.217V395.789L874.723 384.445ZM931.465 371.447H958.052V397.798H931.465V371.447ZM933.592 428.284H955.807V571.026H933.592V428.284ZM1041.97 424.621C1061.43 424.621 1077.89 431.238 1091.37 444.473C1105.62 458.416 1112.75 476.771 1112.75 499.537C1112.75 512.85 1110.31 524.824 1105.43 535.459C1099.12 549.087 1089.55 559.407 1076.71 566.418C1066.08 572.247 1054.34 575.162 1041.5 575.162C1018.34 575.162 999.985 566.615 986.435 549.521C975.801 536.129 970.483 519.467 970.483 499.537C970.483 473.541 979.542 453.493 997.661 439.392C1010.34 429.545 1025.11 424.621 1041.97 424.621ZM1041.38 442.818C1026.97 442.818 1015.07 448.805 1005.7 460.779C997.582 471.099 993.525 484.136 993.525 499.892C993.525 511.078 995.613 520.964 999.788 529.551C1003.73 537.822 1009.28 544.321 1016.45 549.048C1024.01 554.011 1032.44 556.492 1041.74 556.492C1053 556.492 1062.93 552.829 1071.51 545.503C1083.64 535.026 1089.71 519.783 1089.71 499.773C1089.71 482.837 1085.02 469.051 1075.65 458.416C1066.43 448.018 1055.01 442.818 1041.38 442.818ZM1144.68 428.284V453.926C1151.93 444.473 1160.28 437.304 1169.73 432.42C1178.48 427.851 1187.34 425.566 1196.32 425.566C1208.13 425.566 1218.26 428.481 1226.69 434.311C1239.45 443.212 1245.83 458.692 1245.83 480.749V571.026H1223.85V483.467C1223.85 457.628 1213.73 444.709 1193.48 444.709C1185.68 444.709 1178.12 446.915 1170.79 451.326C1159.77 457.786 1151.3 467.436 1145.39 480.276V571.026H1123.17V428.284H1144.68ZM1269.01 537.113C1283.67 549.245 1300.17 555.311 1318.52 555.311C1339.71 555.311 1350.31 548.299 1350.31 534.277C1350.31 527.818 1346.69 522.303 1339.44 517.734C1334.79 514.82 1327.54 511.629 1317.7 508.163L1305.41 503.791C1291.78 498.986 1281.89 494.062 1275.75 489.021C1268.19 482.797 1264.4 474.408 1264.4 463.852C1264.4 451.247 1269.8 441.243 1280.59 433.838C1289.49 427.693 1300.64 424.621 1314.03 424.621C1333.57 424.621 1351.57 430.293 1368.03 441.637L1356.69 458.534C1343.54 448.53 1329.71 443.527 1315.22 443.527C1308.76 443.527 1303.28 444.709 1298.79 447.072C1291.62 450.696 1288.04 456.092 1288.04 463.261C1288.04 468.933 1290.56 473.383 1295.6 476.613C1298.75 478.661 1305.88 481.734 1316.99 485.83L1331.99 491.384C1345.62 496.504 1355.75 501.94 1362.36 507.69C1370.48 514.701 1374.53 523.406 1374.53 533.805C1374.53 547.354 1368.63 558.068 1356.81 565.945C1347.75 571.932 1334.44 574.926 1316.87 574.926C1294.42 574.926 1274.53 567.915 1257.2 553.893L1269.01 537.113ZM1446.19 374.992H1511.77C1531.31 374.992 1547.26 378.301 1559.63 384.918C1565.61 388.148 1570.65 392.362 1574.75 397.562C1582.71 407.566 1586.69 419.461 1586.69 433.247C1586.69 474.132 1561.28 494.574 1510.47 494.574H1468.64V571.026H1446.19V374.992ZM1468.64 393.898V475.904H1505.86C1525.32 475.904 1539.42 472.911 1548.16 466.924C1557.54 460.622 1562.23 449.514 1562.23 433.602C1562.23 419.264 1556.87 408.748 1546.15 402.052C1537.49 396.616 1525.36 393.898 1509.76 393.898H1468.64ZM1688.57 480.749V476.141C1688.57 464.797 1685.45 456.328 1679.23 450.735C1673.56 445.615 1664.82 443.055 1653 443.055C1635.67 443.055 1619.76 448.608 1605.26 459.716L1595.57 444C1612.43 431.238 1631.69 424.857 1653.35 424.857C1673.05 424.857 1687.9 430.175 1697.9 440.81C1706.17 449.632 1710.31 461.764 1710.31 477.204V528.487C1710.31 546.606 1713.14 560.785 1718.82 571.026H1697.55C1694.47 564.488 1692.19 556.098 1690.69 545.857H1689.98C1685.49 553.893 1678.88 560.746 1670.13 566.418C1661.23 572.247 1650.24 575.162 1637.16 575.162C1623.54 575.162 1612.23 571.145 1603.25 563.109C1593.8 554.602 1589.07 543.77 1589.07 530.614C1589.07 514.859 1595.96 502.57 1609.75 493.747C1623.38 485.082 1644.14 480.749 1672.02 480.749H1688.57ZM1688.57 497.528H1673.32C1632.36 497.528 1611.88 508.478 1611.88 530.378C1611.88 537.468 1614.08 543.376 1618.49 548.103C1623.85 553.696 1631.22 556.492 1640.59 556.492C1652.72 556.492 1663.36 552.632 1672.5 544.912C1683.21 535.932 1688.57 525.297 1688.57 513.008V497.528ZM1751.33 467.751H1752.28C1762.28 439.155 1777.76 424.857 1798.72 424.857C1805.26 424.857 1811.32 426.157 1816.92 428.757L1810.06 449.081C1805.97 447.269 1801.16 446.363 1795.65 446.363C1775.64 446.363 1761.58 463.064 1753.46 496.465V571.026H1731.25V428.284H1752.52L1751.33 467.751ZM1851.56 384.445V428.284H1895.76V445.182H1851.56V534.041C1851.56 540.816 1852.15 545.66 1853.33 548.575C1855.38 553.696 1859.52 556.256 1865.74 556.256C1873.93 556.256 1882.17 553.42 1890.44 547.748L1896.58 563.464C1886.11 570.475 1874.64 573.98 1862.2 573.98C1840.77 573.98 1830.06 561.613 1830.06 536.877V445.182H1796.38V428.284H1830.06V395.789L1851.56 384.445ZM1927.68 428.284V453.926C1934.93 444.473 1943.28 437.304 1952.73 432.42C1961.48 427.851 1970.34 425.566 1979.32 425.566C1991.14 425.566 2001.26 428.481 2009.69 434.311C2022.45 443.212 2028.83 458.692 2028.83 480.749V571.026H2006.85V483.467C2006.85 457.628 1996.73 444.709 1976.48 444.709C1968.69 444.709 1961.12 446.915 1953.8 451.326C1942.77 457.786 1934.3 467.436 1928.39 480.276V571.026H1906.18V428.284H1927.68ZM2176.68 502.019H2066.67C2066.98 516.986 2070.49 528.921 2077.18 537.822C2086.24 549.875 2099.4 555.901 2116.65 555.901C2134.85 555.901 2150.13 548.024 2162.5 532.269L2176.21 546.803C2160.53 565.63 2140.32 575.044 2115.59 575.044C2090.93 575.044 2071.98 566.654 2058.75 549.875C2048.51 536.877 2043.39 520.57 2043.39 500.955C2043.39 484.097 2047.09 469.405 2054.5 456.88C2061.74 444.748 2071.59 435.886 2084.04 430.293C2092.7 426.354 2101.92 424.385 2111.69 424.385C2134.38 424.385 2151.82 433.444 2164.03 451.562C2172.46 464.088 2176.68 478.819 2176.68 495.756V502.019ZM2153.52 485.121C2152.57 473.462 2148.87 463.93 2142.41 456.525C2134.38 447.23 2123.98 442.582 2111.22 442.582C2101.92 442.582 2093.45 445.536 2085.81 451.444C2075.73 459.164 2069.66 470.39 2067.61 485.121H2153.52ZM2213.92 467.751H2214.87C2224.87 439.155 2240.35 424.857 2261.31 424.857C2267.85 424.857 2273.91 426.157 2279.5 428.757L2272.65 449.081C2268.55 447.269 2263.75 446.363 2258.24 446.363C2238.23 446.363 2224.16 463.064 2216.05 496.465V571.026H2193.84V428.284H2215.11L2213.92 467.751Z" fill="url(#paint0_linear_206_2)"/>
</g>
<defs>
<linearGradient id="paint0_linear_206_2" x1="869.95" y1="-105.481" x2="813.032" y2="1070" gradientUnits="userSpaceOnUse">
<stop stop-color="white"/>
<stop offset="1" stop-color="white" stop-opacity="0.88"/>
</linearGradient>
<clipPath id="clip0_206_2">
<rect width="2286" height="751" fill="white"/>
</clipPath>
</defs>
</svg>
