<?xml version="1.0" encoding="utf-8"?><svg id="itsolutions2" image-rendering="auto" baseProfile="basic" version="1.1" x="0px" y="0px" width="550" height="100" xmlns="http://www.w3.org/2000/svg" xmlns:xlink="http://www.w3.org/1999/xlink"><defs><g id="Symbol-3" overflow="visible"><g id="Tween-12" transform="translate(5.9 6.05)"><animateTransform attributeName="transform" additive="replace" type="translate" begin="1.958s" repeatCount="indefinite" dur="2s" keyTimes="0;.479;.979;1" values="5.9,6.05;5.9,8.95;5.9,6.05;5.9,6.05"/><path fill="#212121" stroke="none" d="M-.05 -6.05Q-2.45 -6.05 -4.15 -4.2 -5.9 -2.4 -5.9 .05 -5.9 2.55 -4.15 4.3 -2.45 6.1 -.05 6.1 2.4 6.1 4.15 4.3 5.9 2.55 5.9 .05 5.9 -2.4 4.15 -4.2 2.4 -6.05 -.05 -6.05Z"/></g></g></defs><g id="Scene-1-copy-copy" overflow="visible"><g display="none" id="Layer1_0_FILL"><path fill="#212121" stroke="none" d="M73.6 81.6L72.25 81.6 72.25 86.95Q72.25 88.85 71.35 89.85 70.45 90.75 68.95 90.75 66.15 90.75 66.15 87.9L66.15 81.6 64.8 81.6 64.8 87.9Q64.8 89.8 65.9 90.95 66.95 92.1 68.8 92.1 71.1 92.1 72.25 90.25L72.25 91.85 73.6 91.85 73.6 81.6M49.35 77.5L45.1 84.5 40.8 77.5 39.2 77.5 44.35 85.9 44.35 91.85 45.8 91.85 45.8 85.95 51 77.5 49.35 77.5M57.4 81.35Q55.1 81.35 53.55 82.9 52 84.45 52 86.7 52 89 53.55 90.55 55.2 92.1 57.4 92.1 59.55 92.1 61.2 90.55 62.8 88.95 62.8 86.7 62.8 84.5 61.2 82.9 59.65 81.35 57.4 81.35M54.55 83.85Q55.7 82.65 57.4 82.65 59.15 82.65 60.25 83.85 61.45 85 61.45 86.7 61.45 88.4 60.25 89.6 59.15 90.75 57.4 90.75 55.65 90.75 54.55 89.6 53.35 88.4 53.35 86.7 53.35 85 54.55 83.85M151.15 81.35Q148.8 81.35 147.3 82.9 145.8 84.35 145.8 86.7 145.8 89.05 147.3 90.55 148.85 92.1 151.25 92.1 154.25 92.1 155.75 89.7L154.55 89Q153.65 90.75 151.25 90.75 149.6 90.75 148.5 89.85 147.4 88.95 147.15 87.4L156.15 87.4 156.2 86.75Q156.2 84.55 154.8 82.95 153.35 81.35 151.15 81.35M153.55 83.55Q154.55 84.45 154.8 86.1L147.15 86.1Q147.4 84.55 148.45 83.6 149.55 82.65 151.15 82.65 152.5 82.65 153.55 83.55M143.55 76.9L142.15 76.9 142.15 91.85 143.55 91.85 143.55 76.9M138.35 82.9Q136.9 81.35 134.65 81.35 131.95 81.35 130.5 83.6L130.5 81.6 129.15 81.6 129.15 95.9 130.5 95.9 130.5 89.8Q131.95 92.1 134.65 92.1 136.85 92.1 138.35 90.5 139.9 89.05 139.9 86.7 139.9 84.45 138.35 82.9M134.55 82.65Q136.2 82.65 137.4 83.85 138.55 84.95 138.55 86.7 138.55 88.45 137.4 89.6 136.25 90.75 134.55 90.75 132.8 90.75 131.65 89.6 130.5 88.35 130.5 86.7 130.5 85 131.65 83.85 132.85 82.65 134.55 82.65M116.25 81.35Q114.2 81.35 113.1 83.1L113.1 81.6 111.75 81.6 111.75 91.85 113.1 91.85 113.1 86.15Q113.1 84.45 114 83.5 114.8 82.65 116.05 82.65 118.45 82.65 118.45 85.45L118.45 91.85 119.8 91.85 119.8 86.15Q119.8 82.65 122.65 82.65 123.8 82.65 124.45 83.4 125.15 84.1 125.15 85.45L125.15 91.85 126.5 91.85 126.5 85.45Q126.5 83.55 125.45 82.45 124.45 81.35 122.7 81.35 120.45 81.35 119.35 83.2 118.45 81.35 116.25 81.35M98.75 86.7Q98.75 89 100.3 90.55 101.95 92.1 104.1 92.1 106.3 92.1 107.95 90.55 109.5 89 109.5 86.7 109.5 84.45 107.95 82.9 106.4 81.35 104.1 81.35 101.85 81.35 100.3 82.9 98.75 84.45 98.75 86.7M101.25 83.85Q102.45 82.65 104.1 82.65 105.8 82.65 107 83.85 108.15 85 108.15 86.7 108.15 88.35 107 89.6 105.85 90.75 104.1 90.75 102.4 90.75 101.25 89.6 100.1 88.45 100.1 86.7 100.1 84.95 101.25 83.85M81.05 82.75L81.05 81.45Q78.75 81.45 77.85 83.3L77.85 81.6 76.5 81.6 76.5 91.85 77.85 91.85 77.85 86.15Q77.85 84.45 78.75 83.55 79.6 82.75 81.05 82.75M96.2 84.65L97.3 84.05Q96.75 82.8 95.55 82.1 94.35 81.35 92.8 81.35 90.5 81.35 88.95 82.9 87.4 84.55 87.4 86.7 87.4 88.9 88.95 90.55 90.6 92.1 92.8 92.1 94.3 92.1 95.55 91.35 96.75 90.65 97.4 89.4L96.25 88.75Q95.2 90.75 92.8 90.75 91.05 90.75 89.95 89.6 88.75 88.4 88.75 86.7 88.75 85 89.95 83.85 91.1 82.65 92.8 82.65 93.95 82.65 94.9 83.2 95.8 83.75 96.2 84.65M227.1 76.9L225.75 76.9 225.75 91.85 227.1 91.85 227.1 76.9M238.55 81.6L237.2 81.6 237.2 86.95Q237.2 88.85 236.3 89.85 235.4 90.75 233.9 90.75 231.1 90.75 231.1 87.9L231.1 81.6 229.75 81.6 229.75 87.9Q229.75 89.85 230.8 90.95 231.9 92.1 233.75 92.1 236.05 92.1 237.2 90.25L237.2 91.85 238.55 91.85 238.55 81.6M203.75 84.25Q203.75 85.75 205.05 86.5 205.75 86.9 207.65 87.4 209.75 87.95 209.75 89.15 209.75 90.75 207.4 90.75 205.2 90.75 204.55 89.05L203.4 89.7Q204.45 92.1 207.4 92.1 208.95 92.1 210.05 91.25 211.1 90.45 211.1 89.15 211.1 87.65 209.8 86.9 209.15 86.5 207.2 86 205.1 85.45 205.1 84.25 205.1 83.55 205.75 83.1 206.35 82.65 207.25 82.65 209.15 82.65 209.7 84.1L210.85 83.45Q209.9 81.35 207.25 81.35 205.75 81.35 204.75 82.2 203.75 83.05 203.75 84.25M221.95 82.9Q220.4 81.35 218.1 81.35 215.85 81.35 214.3 82.9 212.75 84.45 212.75 86.7 212.75 89 214.3 90.55 215.95 92.1 218.1 92.1 220.3 92.1 221.95 90.55 223.5 88.9 223.5 86.7 223.5 84.55 221.95 82.9M218.1 82.65Q219.8 82.65 221 83.85 222.15 85 222.15 86.7 222.15 88.35 221 89.6 219.85 90.75 218.1 90.75 216.4 90.75 215.25 89.6 214.1 88.45 214.1 86.7 214.1 84.95 215.25 83.85 216.45 82.65 218.1 82.65M184.8 77.5L183.35 77.5 183.35 91.85 184.8 91.85 184.8 77.5M197.05 78.85L197.05 77.5 186.85 77.5 186.85 78.85 191.25 78.85 191.25 91.85 192.65 91.85 192.65 78.85 197.05 78.85M163.8 82.9L163.8 81.6 160.85 81.6 160.85 78.75 159.5 79.15 159.5 81.6 157.35 81.6 157.35 82.9 159.5 82.9 159.5 89.1Q159.5 90.85 160.55 91.55 161.6 92.15 163.8 91.85L163.8 90.65Q162 90.7 161.6 90.55 160.85 90.3 160.85 89.1L160.85 82.9 163.8 82.9M170.8 81.35Q168.45 81.35 166.95 82.9 165.45 84.35 165.45 86.7 165.45 89.05 166.95 90.55 168.5 92.1 170.9 92.1 173.9 92.1 175.4 89.7L174.2 89Q173.3 90.75 170.9 90.75 169.25 90.75 168.15 89.85 167.05 88.95 166.85 87.4L175.8 87.4 175.85 86.75Q175.85 84.55 174.45 82.95 173.1 81.35 170.8 81.35M173.2 83.55Q174.3 84.5 174.45 86.1L166.85 86.1Q167.05 84.55 168.1 83.6 169.2 82.65 170.8 82.65 172.15 82.65 173.2 83.55M313.45 81.6L313.45 83.6Q312.05 81.35 309.3 81.35 307.1 81.35 305.55 82.9 304 84.55 304 86.7 304 88.95 305.55 90.5 307.15 92.1 309.3 92.1 312 92.1 313.45 89.8L313.45 91.85 314.8 91.85 314.8 81.6 313.45 81.6M309.4 82.65Q311.1 82.65 312.3 83.85 313.45 85 313.45 86.7 313.45 88.35 312.3 89.6 311.15 90.75 309.4 90.75 307.65 90.75 306.55 89.6 305.35 88.4 305.35 86.7 305.35 85 306.55 83.85 307.7 82.65 309.4 82.65M319 83.3L319 81.6 317.65 81.6 317.65 91.85 319 91.85 319 86.15Q319 84.45 319.95 83.55 320.8 82.75 322.25 82.75L322.25 81.45Q319.95 81.45 319 83.3M300.8 82.9Q299.35 81.35 297.1 81.35 294.4 81.35 292.95 83.6L292.95 81.6 291.6 81.6 291.6 95.9 292.95 95.9 292.95 89.8Q294.4 92.1 297.1 92.1 299.3 92.1 300.8 90.5 302.4 89 302.4 86.7 302.4 84.5 300.8 82.9M297 82.65Q298.75 82.65 299.85 83.85 301.05 85 301.05 86.7 301.05 88.4 299.85 89.6 298.75 90.75 297 90.75 295.25 90.75 294.1 89.6 292.95 88.35 292.95 86.7 292.95 85 294.1 83.85 295.3 82.65 297 82.65M277.85 82.2Q276.9 83 276.9 84.25 276.9 85.75 278.2 86.5 278.85 86.9 280.75 87.4 282.85 87.95 282.85 89.15 282.85 90.75 280.5 90.75 278.35 90.75 277.7 89.05L276.55 89.7Q277 90.8 278 91.45 279.05 92.1 280.5 92.1 282.1 92.1 283.2 91.25 284.25 90.45 284.25 89.15 284.25 87.7 282.95 86.9 282.3 86.5 280.35 86 278.25 85.45 278.25 84.25 278.25 83.55 278.9 83.1 279.5 82.65 280.4 82.65 282.25 82.65 282.85 84.1L284 83.45Q283.05 81.35 280.4 81.35 278.95 81.35 277.85 82.2M274.55 85.55Q274.55 83.65 273.45 82.5 272.4 81.35 270.55 81.35 268.2 81.35 267.1 83.2L267.1 81.6 265.75 81.6 265.75 91.85 267.1 91.85 267.1 86.45Q267.1 84.55 268 83.6 268.9 82.65 270.4 82.65 273.2 82.65 273.2 85.55L273.2 91.85 274.55 91.85 274.55 85.55M250.45 81.6L249.1 81.6 249.1 91.85 250.45 91.85 250.45 81.6M243.9 82.9L246.85 82.9 246.85 81.6 243.9 81.6 243.9 78.75 242.55 79.15 242.55 81.6 240.4 81.6 240.4 82.9 242.55 82.9 242.55 89.1Q242.55 90.85 243.65 91.55 244.65 92.15 246.85 91.85L246.85 90.65Q245.05 90.7 244.65 90.55 243.9 90.3 243.9 89.1L243.9 82.9M248.8 78.45Q248.8 78.85 249.1 79.15 249.35 79.4 249.8 79.4 250.2 79.4 250.5 79.15 251.1 78.45 250.5 77.75 250.2 77.45 249.8 77.45 249.35 77.45 249.1 77.75 248.8 78.05 248.8 78.45M261.9 82.9Q260.35 81.35 258.1 81.35 255.8 81.35 254.25 82.9 252.7 84.45 252.7 86.7 252.7 89 254.25 90.55 255.9 92.1 258.1 92.1 260.25 92.1 261.9 90.55 263.5 88.95 263.5 86.7 263.5 84.5 261.9 82.9M258.1 82.65Q259.85 82.65 260.95 83.85 262.15 85 262.15 86.7 262.15 88.4 260.95 89.6 259.85 90.75 258.1 90.75 256.35 90.75 255.25 89.6 254.05 88.4 254.05 86.7 254.05 85 255.25 83.85 256.4 82.65 258.1 82.65M356.55 83.3L356.55 81.6 355.2 81.6 355.2 91.85 356.55 91.85 356.55 86.15Q356.55 82.75 359.8 82.75L359.8 81.45Q357.5 81.45 356.55 83.3M342.6 86.7Q342.6 89.05 344.1 90.55 345.75 92.1 348.05 92.1 351.05 92.1 352.55 89.7L351.4 89Q350.4 90.75 348.1 90.75 346.45 90.75 345.3 89.85 344.2 88.95 344 87.4L353 87.4 353.05 86.75Q353.05 84.65 351.6 82.95 350.25 81.35 347.95 81.35 345.6 81.35 344.1 82.9 342.6 84.4 342.6 86.7M347.95 82.65Q349.35 82.65 350.4 83.55 351.4 84.45 351.65 86.1L344 86.1Q344.2 84.55 345.3 83.6 346.4 82.65 347.95 82.65M326.6 78.75L325.25 79.15 325.25 81.6 323.1 81.6 323.1 82.9 325.25 82.9 325.25 89.1Q325.25 90.85 326.3 91.55 327.35 92.15 329.55 91.85L329.55 90.65Q327.75 90.7 327.35 90.55 326.6 90.3 326.6 89.1L326.6 82.9 329.55 82.9 329.55 81.6 326.6 81.6 326.6 78.75M336.45 82.65Q339.25 82.65 339.25 85.55L339.25 91.85 340.6 91.85 340.6 85.55Q340.6 83.65 339.5 82.5 338.45 81.35 336.6 81.35 334.25 81.35 333.15 83.2L333.15 81.6 331.8 81.6 331.8 91.85 333.15 91.85 333.15 86.45Q333.15 84.55 334.05 83.6 334.95 82.65 336.45 82.65Z"/><animate attributeName="display" repeatCount="indefinite" dur="12.958s" keyTimes="0;.309;1" values="none;inline;inline"/></g><g display="none"><g id="Tween-9" transform="translate(-244.55 86.4)"><animateTransform attributeName="transform" additive="replace" type="translate" repeatCount="indefinite" dur="12.958s" keyTimes="0;.151;.305;1" values="-244.55,86.4;-244.55,86.4;276.25,86.4;276.25,86.4" keySplines=".419 0 .51 1;.419 0 .51 1;0 0 1 1" calcMode="spline"/><path fill="#212121" stroke="none" d="M75.35 -3.45Q74 -5.05 71.7 -5.05 69.35 -5.05 67.85 -3.5 66.35 -2 66.35 .3 66.35 2.65 67.85 4.15 69.5 5.7 71.8 5.7 74.8 5.7 76.3 3.3L75.15 2.6Q74.15 4.35 71.85 4.35 70.2 4.35 69.05 3.45 67.95 2.55 67.75 1L76.75 1 76.8 .35Q76.8 -1.75 75.35 -3.45M67.75 -.3Q67.95 -1.85 69.05 -2.8 70.15 -3.75 71.7 -3.75 73.1 -3.75 74.15 -2.85 75.15 -1.95 75.4 -.3L67.75 -.3M80.3 -3.1L80.3 -4.8 78.95 -4.8 78.95 5.45 80.3 5.45 80.3 -.25Q80.3 -3.65 83.55 -3.65L83.55 -4.95Q81.25 -4.95 80.3 -3.1M57.8 -2.8Q58.7 -3.75 60.2 -3.75 63 -3.75 63 -.85L63 5.45 64.35 5.45 64.35 -.85Q64.35 -2.75 63.25 -3.9 62.2 -5.05 60.35 -5.05 58 -5.05 56.9 -3.2L56.9 -4.8 55.55 -4.8 55.55 5.45 56.9 5.45 56.9 .05Q56.9 -1.85 57.8 -2.8M42.75 -3.1L42.75 -4.8 41.4 -4.8 41.4 5.45 42.75 5.45 42.75 -.25Q42.75 -1.95 43.7 -2.85 44.55 -3.65 46 -3.65L46 -4.95Q43.7 -4.95 42.75 -3.1M50.35 -7.65L49 -7.25 49 -4.8 46.85 -4.8 46.85 -3.5 49 -3.5 49 2.7Q49 4.45 50.05 5.15 51.1 5.75 53.3 5.45L53.3 4.25Q51.5 4.3 51.1 4.15 50.35 3.9 50.35 2.7L50.35 -3.5 53.3 -3.5 53.3 -4.8 50.35 -4.8 50.35 -7.65M38.55 -4.8L37.2 -4.8 37.2 -2.8Q35.8 -5.05 33.05 -5.05 30.85 -5.05 29.3 -3.5 27.75 -1.85 27.75 .3 27.75 2.55 29.3 4.1 30.9 5.7 33.05 5.7 35.75 5.7 37.2 3.4L37.2 5.45 38.55 5.45 38.55 -4.8M33.15 -3.75Q34.85 -3.75 36.05 -2.55 37.2 -1.4 37.2 .3 37.2 1.95 36.05 3.2 34.9 4.35 33.15 4.35 31.4 4.35 30.3 3.2 29.1 2 29.1 .3 29.1 -1.4 30.3 -2.55 31.45 -3.75 33.15 -3.75M16.7 -4.8L15.35 -4.8 15.35 9.5 16.7 9.5 16.7 3.4Q18.15 5.7 20.85 5.7 23.05 5.7 24.55 4.1 26.15 2.6 26.15 .3 26.15 -1.9 24.55 -3.5 23.1 -5.05 20.85 -5.05 18.15 -5.05 16.7 -2.8L16.7 -4.8M20.75 -3.75Q22.5 -3.75 23.6 -2.55 24.8 -1.4 24.8 .3 24.8 2 23.6 3.2 22.5 4.35 20.75 4.35 19 4.35 17.85 3.2 16.7 1.95 16.7 .3 16.7 -1.4 17.85 -2.55 19.05 -3.75 20.75 -3.75M4.15 -3.75Q6 -3.75 6.6 -2.3L7.75 -2.95Q6.8 -5.05 4.15 -5.05 2.7 -5.05 1.6 -4.2 .65 -3.4 .65 -2.15 .65 -.65 1.95 .1 2.6 .5 4.5 1 6.6 1.55 6.6 2.75 6.6 4.35 4.25 4.35 2.1 4.35 1.45 2.65L.3 3.3Q.75 4.4 1.75 5.05 2.8 5.7 4.25 5.7 5.85 5.7 6.95 4.85 8 4.05 8 2.75 8 1.3 6.7 .5 6.05 .1 4.1 -.4 2 -.95 2 -2.15 2 -2.85 2.65 -3.3 3.25 -3.75 4.15 -3.75M-1.7 -.85Q-1.7 -2.75 -2.8 -3.9 -3.85 -5.05 -5.7 -5.05 -8.05 -5.05 -9.15 -3.2L-9.15 -4.8 -10.5 -4.8 -10.5 5.45 -9.15 5.45 -9.15 .05Q-9.15 -1.85 -8.25 -2.8 -7.35 -3.75 -5.85 -3.75 -3.05 -3.75 -3.05 -.85L-3.05 5.45 -1.7 5.45 -1.7 -.85M-14.35 -3.5Q-15.9 -5.05 -18.15 -5.05 -20.45 -5.05 -22 -3.5 -23.55 -1.95 -23.55 .3 -23.55 2.6 -22 4.15 -20.35 5.7 -18.15 5.7 -16 5.7 -14.35 4.15 -12.75 2.55 -12.75 .3 -12.75 -1.9 -14.35 -3.5M-18.15 -3.75Q-16.4 -3.75 -15.3 -2.55 -14.1 -1.4 -14.1 .3 -14.1 2 -15.3 3.2 -16.4 4.35 -18.15 4.35 -19.9 4.35 -21 3.2 -22.2 2 -22.2 .3 -22.2 -1.4 -21 -2.55 -19.85 -3.75 -18.15 -3.75M-25.8 -4.8L-27.15 -4.8 -27.15 5.45 -25.8 5.45 -25.8 -4.8M-26.45 -8.95Q-26.9 -8.95 -27.15 -8.65 -27.45 -8.35 -27.45 -7.95 -27.45 -7.55 -27.15 -7.25 -26.9 -7 -26.45 -7 -26.05 -7 -25.75 -7.25 -25.15 -7.95 -25.75 -8.65 -26.05 -8.95 -26.45 -8.95M-32.35 -7.65L-33.7 -7.25 -33.7 -4.8 -35.85 -4.8 -35.85 -3.5 -33.7 -3.5 -33.7 2.7Q-33.7 4.45 -32.6 5.15 -31.6 5.75 -29.4 5.45L-29.4 4.25Q-31.2 4.3 -31.6 4.15 -32.35 3.9 -32.35 2.7L-32.35 -3.5 -29.4 -3.5 -29.4 -4.8 -32.35 -4.8 -32.35 -7.65M-45.15 -4.8L-46.5 -4.8 -46.5 1.5Q-46.5 3.45 -45.45 4.55 -44.35 5.7 -42.5 5.7 -40.2 5.7 -39.05 3.85L-39.05 5.45 -37.7 5.45 -37.7 -4.8 -39.05 -4.8 -39.05 .55Q-39.05 2.45 -39.95 3.45 -40.85 4.35 -42.35 4.35 -45.15 4.35 -45.15 1.5L-45.15 -4.8M-49.15 -9.5L-50.5 -9.5 -50.5 5.45 -49.15 5.45 -49.15 -9.5M-54.3 -3.5Q-55.85 -5.05 -58.15 -5.05 -60.4 -5.05 -61.95 -3.5 -63.5 -1.95 -63.5 .3 -63.5 2.6 -61.95 4.15 -60.3 5.7 -58.15 5.7 -55.95 5.7 -54.3 4.15 -52.75 2.5 -52.75 .3 -52.75 -1.85 -54.3 -3.5M-58.15 -3.75Q-56.45 -3.75 -55.25 -2.55 -54.1 -1.4 -54.1 .3 -54.1 1.95 -55.25 3.2 -56.4 4.35 -58.15 4.35 -59.85 4.35 -61 3.2 -62.15 2.05 -62.15 .3 -62.15 -1.45 -61 -2.55 -59.8 -3.75 -58.15 -3.75M-71.5 -4.2Q-72.5 -3.35 -72.5 -2.15 -72.5 -.65 -71.2 .1 -70.5 .5 -68.6 1 -66.5 1.55 -66.5 2.75 -66.5 4.35 -68.85 4.35 -71.05 4.35 -71.7 2.65L-72.85 3.3Q-71.8 5.7 -68.85 5.7 -67.3 5.7 -66.2 4.85 -65.15 4.05 -65.15 2.75 -65.15 1.25 -66.45 .5 -67.1 .1 -69.05 -.4 -71.15 -.95 -71.15 -2.15 -71.15 -2.85 -70.5 -3.3 -69.9 -3.75 -69 -3.75 -67.1 -3.75 -66.55 -2.3L-65.4 -2.95Q-66.35 -5.05 -69 -5.05 -70.5 -5.05 -71.5 -4.2M-89.4 -7.55L-85 -7.55 -85 5.45 -83.6 5.45 -83.6 -7.55 -79.2 -7.55 -79.2 -8.9 -89.4 -8.9 -89.4 -7.55M-91.45 -8.9L-92.9 -8.9 -92.9 5.45 -91.45 5.45 -91.45 -8.9M-101.8 -3.45Q-103.15 -5.05 -105.45 -5.05 -107.8 -5.05 -109.3 -3.5 -110.8 -2.05 -110.8 .3 -110.8 2.65 -109.3 4.15 -107.75 5.7 -105.35 5.7 -102.35 5.7 -100.85 3.3L-102.05 2.6Q-102.95 4.35 -105.35 4.35 -107 4.35 -108.1 3.45 -109.2 2.55 -109.4 1L-100.45 1 -100.4 .35Q-100.4 -1.85 -101.8 -3.45M-101.8 -.3L-109.4 -.3Q-109.2 -1.85 -108.15 -2.8 -107.05 -3.75 -105.45 -3.75 -104.1 -3.75 -103.05 -2.85 -101.95 -1.9 -101.8 -.3M-118.9 -4.8L-118.9 -3.5 -116.75 -3.5 -116.75 2.7Q-116.75 4.45 -115.7 5.15 -114.65 5.75 -112.45 5.45L-112.45 4.25Q-114.25 4.3 -114.65 4.15 -115.4 3.9 -115.4 2.7L-115.4 -3.5 -112.45 -3.5 -112.45 -4.8 -115.4 -4.8 -115.4 -7.65 -116.75 -7.25 -116.75 -4.8 -118.9 -4.8M-132.7 -9.5L-134.1 -9.5 -134.1 5.45 -132.7 5.45 -132.7 -9.5M-125.1 -5.05Q-127.45 -5.05 -128.95 -3.5 -130.45 -2.05 -130.45 .3 -130.45 2.65 -128.95 4.15 -127.4 5.7 -125 5.7 -122 5.7 -120.5 3.3L-121.7 2.6Q-122.6 4.35 -125 4.35 -126.65 4.35 -127.75 3.45 -128.85 2.55 -129.1 1L-120.1 1 -120.05 .35Q-120.05 -1.85 -121.45 -3.45 -122.9 -5.05 -125.1 -5.05M-125.1 -3.75Q-123.75 -3.75 -122.7 -2.85 -121.7 -1.95 -121.45 -.3L-129.1 -.3Q-128.85 -1.85 -127.8 -2.8 -126.7 -3.75 -125.1 -3.75M-145.75 -4.8L-147.1 -4.8 -147.1 9.5 -145.75 9.5 -145.75 3.4Q-144.3 5.7 -141.6 5.7 -139.4 5.7 -137.9 4.1 -136.35 2.65 -136.35 .3 -136.35 -1.95 -137.9 -3.5 -139.35 -5.05 -141.6 -5.05 -144.3 -5.05 -145.75 -2.8L-145.75 -4.8M-141.7 -3.75Q-140.05 -3.75 -138.85 -2.55 -137.7 -1.45 -137.7 .3 -137.7 2.05 -138.85 3.2 -140 4.35 -141.7 4.35 -143.45 4.35 -144.6 3.2 -145.75 1.95 -145.75 .3 -145.75 -1.4 -144.6 -2.55 -143.4 -3.75 -141.7 -3.75M-163.15 -3.3L-163.15 -4.8 -164.5 -4.8 -164.5 5.45 -163.15 5.45 -163.15 -.25Q-163.15 -1.95 -162.25 -2.9 -161.45 -3.75 -160.2 -3.75 -157.8 -3.75 -157.8 -.95L-157.8 5.45 -156.45 5.45 -156.45 -.25Q-156.45 -3.75 -153.6 -3.75 -152.45 -3.75 -151.8 -3 -151.1 -2.3 -151.1 -.95L-151.1 5.45 -149.75 5.45 -149.75 -.95Q-149.75 -2.85 -150.8 -3.95 -151.8 -5.05 -153.55 -5.05 -155.8 -5.05 -156.9 -3.2 -157.8 -5.05 -160 -5.05 -162.05 -5.05 -163.15 -3.3M-172.15 -5.05Q-174.4 -5.05 -175.95 -3.5 -177.5 -1.95 -177.5 .3 -177.5 2.6 -175.95 4.15 -174.3 5.7 -172.15 5.7 -169.95 5.7 -168.3 4.15 -166.75 2.6 -166.75 .3 -166.75 -1.95 -168.3 -3.5 -169.85 -5.05 -172.15 -5.05M-175 -2.55Q-173.8 -3.75 -172.15 -3.75 -170.45 -3.75 -169.25 -2.55 -168.1 -1.4 -168.1 .3 -168.1 1.95 -169.25 3.2 -170.4 4.35 -172.15 4.35 -173.85 4.35 -175 3.2 -176.15 2.05 -176.15 .3 -176.15 -1.45 -175 -2.55M-183.45 -5.05Q-185.75 -5.05 -187.3 -3.5 -188.85 -1.85 -188.85 .3 -188.85 2.5 -187.3 4.15 -185.65 5.7 -183.45 5.7 -181.95 5.7 -180.7 4.95 -179.5 4.25 -178.85 3L-180 2.35Q-181.05 4.35 -183.45 4.35 -185.2 4.35 -186.3 3.2 -187.5 2 -187.5 .3 -187.5 -1.4 -186.3 -2.55 -185.15 -3.75 -183.45 -3.75 -182.3 -3.75 -181.35 -3.2 -180.45 -2.65 -180.05 -1.75L-178.95 -2.35Q-179.5 -3.6 -180.7 -4.3 -181.9 -5.05 -183.45 -5.05M-195.2 -4.95Q-197.5 -4.95 -198.4 -3.1L-198.4 -4.8 -199.75 -4.8 -199.75 5.45 -198.4 5.45 -198.4 -.25Q-198.4 -1.95 -197.5 -2.85 -196.65 -3.65 -195.2 -3.65L-195.2 -4.95M-202.65 -4.8L-204 -4.8 -204 .55Q-204 2.45 -204.9 3.45 -205.8 4.35 -207.3 4.35 -210.1 4.35 -210.1 1.5L-210.1 -4.8 -211.45 -4.8 -211.45 1.5Q-211.45 3.4 -210.35 4.55 -209.3 5.7 -207.45 5.7 -205.15 5.7 -204 3.85L-204 5.45 -202.65 5.45 -202.65 -4.8M-218.85 -5.05Q-221.15 -5.05 -222.7 -3.5 -224.25 -1.95 -224.25 .3 -224.25 2.6 -222.7 4.15 -221.05 5.7 -218.85 5.7 -216.7 5.7 -215.05 4.15 -213.45 2.55 -213.45 .3 -213.45 -1.9 -215.05 -3.5 -216.6 -5.05 -218.85 -5.05M-218.85 -3.75Q-217.1 -3.75 -216 -2.55 -214.8 -1.4 -214.8 .3 -214.8 2 -216 3.2 -217.1 4.35 -218.85 4.35 -220.6 4.35 -221.7 3.2 -222.9 2 -222.9 .3 -222.9 -1.4 -221.7 -2.55 -220.55 -3.75 -218.85 -3.75M-235.45 -8.9L-237.05 -8.9 -231.9 -.5 -231.9 5.45 -230.45 5.45 -230.45 -.45 -225.25 -8.9 -226.9 -8.9 -231.15 -1.9 -235.45 -8.9Z"/><path id="Layer29_0_1_STROKES" stroke="#C50017" stroke-width=".1" stroke-linejoin="round" stroke-linecap="round" fill="none" d="M115 -4.95L237.05 -4.85 237.05 5.9 111.1 5.9 115 -4.95Z"/><path id="Layer29_0_2_STROKES" stroke="#C50017" stroke-width="1" stroke-linejoin="round" stroke-linecap="round" fill="none" d="M-233.85 10.8L-232.15 10.8"/></g><animate attributeName="display" repeatCount="indefinite" dur="12.958s" keyTimes="0;.151;.309;1" values="none;inline;none;none"/></g><g><g id="Tween-8" transform="translate(-249.2 36.1)"><animateTransform attributeName="transform" additive="replace" type="translate" repeatCount="indefinite" dur="12.958s" keyTimes="0;.151;1" values="-249.2,36.1;275.5,36.1;275.5,36.1" keySplines=".419 0 .51 1;0 0 1 1" calcMode="spline"/><path fill="#212121" stroke="none" d="M144.15 21.95Q144.15 19.25 142.3 17.35 140.45 15.45 137.85 15.45 135.25 15.45 133.35 17.35 131.5 19.25 131.5 21.95 131.5 24.65 133.35 26.5 135.25 28.4 137.85 28.4 140.45 28.4 142.3 26.5 144.15 24.65 144.15 21.95M232.4 -6.1Q227.2 -11.9 218.9 -11.9 210.2 -11.9 204.75 -6.1 199.25 -.3 199.25 8.3 199.25 17.1 204.85 22.75 210.4 28.5 219.65 28.5 230.4 28.5 235.9 20.3L228.15 15.7Q225.35 19.55 219.8 19.55 211.25 19.55 209.3 12.35L237.35 12.35Q237.75 10.05 237.75 8.3 237.75 -.2 232.4 -6.1M212.55 -1Q215.1 -3.05 218.9 -3.05 222.3 -3.05 224.75 -1.1 227.3 .9 228.15 4.7L209.15 4.7Q210 1 212.55 -1M156.25 -6Q155.1 -4.7 154.2 -3.3 152.6 -.8 151.8 2.1 151 5 151 8.3 151 11.65 151.8 14.6 152.6 17.5 154.2 20 155.1 21.4 156.25 22.7 161.6 28.5 169.05 28.5 176.85 28.5 181.2 22.9L181.2 27.45 190.8 27.45 190.8 -10.85 181.2 -10.85 181.2 -6.3Q176.95 -11.9 169.05 -11.9 161.7 -11.9 156.25 -6M181.2 8.3Q181.2 13.1 178.25 16.1 175.35 19.1 170.85 19.1 166.35 19.1 163.5 16.1 160.6 13.05 160.6 8.3 160.6 3.55 163.5 .55 166.35 -2.5 170.85 -2.5 175.35 -2.5 178.25 .55 181.2 3.5 181.2 8.3M109.55 -11.9Q103.5 -11.9 99.45 -8.6 95.45 -5.5 95.45 .25 95.45 5.55 99.6 8.6 102.3 10.6 107.85 12.05 111.15 12.9 112.7 13.75 114.65 14.85 114.65 16.25 114.65 19.55 109.5 19.55 103.85 19.55 102.2 14.55L93.85 19.4Q98 28.5 109.5 28.5 115.9 28.5 120.15 25.35 124.45 22.15 124.45 16.25 124.55 6.9 112 4.25 108.75 3.4 107.2 2.55 105.25 1.45 105.25 .05 105.25 -1.4 106.5 -2.25 107.7 -3.1 109.55 -3.1 113.8 -3.1 115.5 .8L123.7 -3.8Q121.55 -7.7 117.8 -9.8 114.1 -11.9 109.55 -11.9M63.75 -.4Q65.85 -2.75 69.7 -2.75 73.1 -2.75 75.05 -.7 77.05 1.4 77.05 5.15L77.05 27.45 86.65 27.45 86.65 3.95Q86.65 -3.4 82.65 -7.7 78.8 -11.9 72.6 -11.9 64.9 -11.9 61.5 -6.55L61.5 -10.85 51.9 -10.85 51.9 27.45 61.5 27.45 61.5 6.75Q61.5 2.1 63.75 -.4M23.8 -11.9Q15.55 -11.9 9.8 -6 4.15 -.2 4.15 8.3 4.15 16.9 9.8 22.7 15.45 28.5 23.8 28.5 32.15 28.5 37.8 22.7 43.5 16.85 43.5 8.3 43.5 -.15 37.8 -6 32.05 -11.9 23.8 -11.9M33.9 8.3Q33.9 12.95 31 15.9 28.15 18.85 23.8 18.85 19.5 18.85 16.6 15.9 13.75 12.9 13.75 8.3 13.75 3.7 16.6 .7 19.5 -2.25 23.8 -2.25 28.15 -2.25 31 .7 33.9 3.7 33.9 8.3M-3.35 -10.85L-12.95 -10.85 -12.95 27.45 -3.35 27.45 -3.35 -10.85M-8.2 -27.6Q-10.6 -27.6 -12.35 -25.75 -14.1 -23.95 -14.1 -21.5 -14.1 -19.05 -12.35 -17.25 -10.6 -15.45 -8.2 -15.45 -5.75 -15.45 -4 -17.25 -2.25 -19 -2.25 -21.5 -2.25 -23.95 -4 -25.75 -5.75 -27.6 -8.2 -27.6M-45.85 -10.85L-45.85 -1.35 -39.4 -1.35 -39.4 14.55Q-39.4 22.5 -35.3 25.5 -31.15 28.55 -21.35 27.45L-21.35 18.5Q-26.1 18.75 -27.65 18.2 -29.8 17.45 -29.8 14.55L-29.8 -1.35 -21.35 -1.35 -21.35 -10.85 -29.8 -10.85 -29.8 -21.55 -39.4 -18.55 -39.4 -10.85 -45.85 -10.85M-53 -10.85L-62.6 -10.85 -62.6 9.85Q-62.6 14.5 -64.8 16.95 -66.95 19.3 -70.8 19.3 -74.2 19.3 -76.15 17.3 -78.15 15.2 -78.15 11.45L-78.15 -10.85 -87.75 -10.85 -87.75 12.65Q-87.75 19.95 -83.8 24.3 -79.8 28.5 -73.7 28.5 -66 28.5 -62.6 23.15L-62.6 27.45 -53 27.45 -53 -10.85M-96.6 -28.45L-106.2 -28.45 -106.2 27.45 -96.6 27.45 -96.6 -28.45M-134.3 -11.9Q-142.55 -11.9 -148.3 -6 -153.95 -.2 -153.95 8.3 -153.95 16.9 -148.3 22.7 -142.65 28.5 -134.3 28.5 -125.95 28.5 -120.3 22.7 -114.55 16.8 -114.55 8.3 -114.55 -.1 -120.3 -6 -126.05 -11.9 -134.3 -11.9M-134.3 18.85Q-138.6 18.85 -141.5 15.9 -144.35 12.8 -144.35 8.3 -144.35 3.8 -141.5 .7 -138.6 -2.25 -134.3 -2.25 -129.95 -2.25 -127.1 .7 -124.15 3.75 -124.15 8.3 -124.15 12.9 -127.1 15.9 -129.95 18.85 -134.3 18.85M-174.7 -11.9Q-180.75 -11.9 -184.8 -8.6 -188.85 -5.45 -188.85 .25 -188.85 5.55 -184.7 8.6 -181.95 10.6 -176.4 12.05 -173.15 12.9 -171.6 13.75 -169.65 14.85 -169.65 16.25 -169.65 19.55 -174.75 19.55 -180.4 19.55 -182.05 14.55L-190.4 19.4Q-186.25 28.5 -174.75 28.5 -168.35 28.5 -164.15 25.35 -159.8 22.2 -159.8 16.25 -159.75 6.9 -172.25 4.25 -175.5 3.4 -177.05 2.55 -179 1.45 -179 .05 -179 -1.4 -177.75 -2.25 -176.55 -3.1 -174.7 -3.1 -170.55 -3.1 -168.75 .8L-160.55 -3.8Q-162.7 -7.7 -166.45 -9.8 -170.15 -11.9 -174.7 -11.9M-220.75 -10.85L-220.75 -1.35 -214.3 -1.35 -214.3 14.55Q-214.3 22.5 -210.25 25.5 -206.05 28.55 -196.3 27.45L-196.3 18.5Q-201 18.75 -202.55 18.2 -204.7 17.45 -204.7 14.55L-204.7 -1.35 -196.3 -1.35 -196.3 -10.85 -204.7 -10.85 -204.7 -21.55 -214.3 -18.55 -214.3 -10.85 -220.75 -10.85M-227 -10.85L-236.6 -10.85 -236.6 27.45 -227 27.45 -227 -10.85M-231.85 -27.6Q-234.25 -27.6 -235.95 -25.75 -237.7 -23.95 -237.7 -21.5 -237.7 -19 -235.95 -17.25 -234.25 -15.45 -231.85 -15.45 -229.4 -15.45 -227.65 -17.25 -225.9 -19 -225.9 -21.5 -225.9 -23.95 -227.65 -25.75 -229.4 -27.6 -231.85 -27.6Z"/></g><animate attributeName="display" repeatCount="indefinite" dur="12.958s" keyTimes="0;.154;1" values="inline;none;none"/></g><g display="none"><g id="Tween-7" transform="translate(275.5 36.1)"><path fill="#212121" stroke="none" d="M-3.35 -10.85L-12.95 -10.85 -12.95 27.45 -3.35 27.45 -3.35 -10.85M-45.85 -10.85L-45.85 -1.35 -39.4 -1.35 -39.4 14.55Q-39.4 22.5 -35.3 25.5 -31.15 28.55 -21.35 27.45L-21.35 18.5Q-26.1 18.75 -27.65 18.2 -29.8 17.45 -29.8 14.55L-29.8 -1.35 -21.35 -1.35 -21.35 -10.85 -29.8 -10.85 -29.8 -21.55 -39.4 -18.55 -39.4 -10.85 -45.85 -10.85M-53 -10.85L-62.6 -10.85 -62.6 9.85Q-62.6 14.5 -64.8 16.95 -66.95 19.3 -70.8 19.3 -74.2 19.3 -76.15 17.3 -78.15 15.2 -78.15 11.45L-78.15 -10.85 -87.75 -10.85 -87.75 12.65Q-87.75 19.95 -83.8 24.3 -79.8 28.5 -73.7 28.5 -66 28.5 -62.6 23.15L-62.6 27.45 -53 27.45 -53 -10.85M-96.6 -28.45L-106.2 -28.45 -106.2 27.45 -96.6 27.45 -96.6 -28.45M-134.3 -11.9Q-142.55 -11.9 -148.3 -6 -153.95 -.2 -153.95 8.3 -153.95 16.9 -148.3 22.7 -142.65 28.5 -134.3 28.5 -125.95 28.5 -120.3 22.7 -114.55 16.8 -114.55 8.3 -114.55 -.1 -120.3 -6 -126.05 -11.9 -134.3 -11.9M-141.5 15.9Q-144.35 12.8 -144.35 8.3 -144.35 3.8 -141.5 .7 -138.6 -2.25 -134.3 -2.25 -129.95 -2.25 -127.1 .7 -124.15 3.75 -124.15 8.3 -124.15 12.9 -127.1 15.9 -129.95 18.85 -134.3 18.85 -138.6 18.85 -141.5 15.9M-174.7 -11.9Q-180.75 -11.9 -184.8 -8.6 -188.85 -5.45 -188.85 .25 -188.85 5.55 -184.7 8.6 -181.95 10.6 -176.4 12.05 -173.15 12.9 -171.6 13.75 -169.65 14.85 -169.65 16.25 -169.65 19.55 -174.75 19.55 -180.4 19.55 -182.05 14.55L-190.4 19.4Q-186.25 28.5 -174.75 28.5 -168.35 28.5 -164.15 25.35 -159.8 22.2 -159.8 16.25 -159.75 6.9 -172.25 4.25 -175.5 3.4 -177.05 2.55 -179 1.45 -179 .05 -179 -1.4 -177.75 -2.25 -176.55 -3.1 -174.7 -3.1 -170.55 -3.1 -168.75 .8L-160.55 -3.8Q-162.7 -7.7 -166.45 -9.8 -170.15 -11.9 -174.7 -11.9M-204.7 -10.85L-204.7 -21.55 -214.3 -18.55 -214.3 -10.85 -220.75 -10.85 -220.75 -1.35 -214.3 -1.35 -214.3 14.55Q-214.3 22.5 -210.25 25.5 -206.05 28.55 -196.3 27.45L-196.3 18.5Q-201 18.75 -202.55 18.2 -204.7 17.45 -204.7 14.55L-204.7 -1.35 -196.3 -1.35 -196.3 -10.85 -204.7 -10.85M-227 -10.85L-236.6 -10.85 -236.6 27.45 -227 27.45 -227 -10.85M131.5 21.95Q131.5 24.65 133.35 26.5 135.25 28.4 137.85 28.4 140.45 28.4 142.3 26.5 144.15 24.65 144.15 21.95 144.15 19.25 142.3 17.35 140.45 15.45 137.85 15.45 135.25 15.45 133.35 17.35 131.5 19.25 131.5 21.95M109.55 -11.9Q103.5 -11.9 99.45 -8.6 95.45 -5.5 95.45 .25 95.45 5.55 99.6 8.6 102.3 10.6 107.85 12.05 111.15 12.9 112.7 13.75 114.65 14.85 114.65 16.25 114.65 19.55 109.5 19.55 103.85 19.55 102.2 14.55L93.85 19.4Q98 28.5 109.5 28.5 115.9 28.5 120.15 25.35 124.45 22.15 124.45 16.25 124.55 6.9 112 4.25 108.75 3.4 107.2 2.55 105.25 1.45 105.25 .05 105.25 -1.4 106.5 -2.25 107.7 -3.1 109.55 -3.1 113.8 -3.1 115.5 .8L123.7 -3.8Q121.55 -7.7 117.8 -9.8 114.1 -11.9 109.55 -11.9M72.6 -11.9Q64.9 -11.9 61.5 -6.55L61.5 -10.85 51.9 -10.85 51.9 27.45 61.5 27.45 61.5 6.75Q61.5 2.1 63.75 -.4 65.85 -2.75 69.7 -2.75 73.1 -2.75 75.05 -.7 77.05 1.4 77.05 5.15L77.05 27.45 86.65 27.45 86.65 3.95Q86.65 -3.4 82.65 -7.7 78.8 -11.9 72.6 -11.9M37.8 -6Q32.05 -11.9 23.8 -11.9 15.55 -11.9 9.8 -6 4.15 -.2 4.15 8.3 4.15 16.9 9.8 22.7 15.45 28.5 23.8 28.5 32.15 28.5 37.8 22.7 43.5 16.85 43.5 8.3 43.5 -.15 37.8 -6M33.9 8.3Q33.9 12.95 31 15.9 28.15 18.85 23.8 18.85 19.5 18.85 16.6 15.9 13.75 12.9 13.75 8.3 13.75 3.7 16.6 .7 19.5 -2.25 23.8 -2.25 28.15 -2.25 31 .7 33.9 3.7 33.9 8.3Z"/><g id="Symbol-2" transform="translate(151 -11.9)"><path fill="#212121" stroke="none" d="M39.8 1.05L30.2 1.05 30.2 5.6Q25.95 0 18.05 0 10.7 0 5.25 5.9 4.1 7.2 3.2 8.6 1.6 11.1 .8 14 0 16.9 0 20.2 0 23.55 .8 26.5 1.6 29.4 3.2 31.9 4.1 33.3 5.25 34.6 10.6 40.4 18.05 40.4 25.85 40.4 30.2 34.8L30.2 39.35 39.8 39.35 39.8 1.05M27.25 12.45Q30.2 15.4 30.2 20.2 30.2 25 27.25 28 24.35 31 19.85 31 15.35 31 12.5 28 9.6 24.95 9.6 20.2 9.6 15.45 12.5 12.45 15.35 9.4 19.85 9.4 24.35 9.4 27.25 12.45M86.75 20.2Q86.75 11.7 81.4 5.8 76.2 0 67.9 0 59.2 0 53.75 5.8 48.25 11.6 48.25 20.2 48.25 29 53.85 34.65 59.4 40.4 68.65 40.4 79.4 40.4 84.9 32.2L77.15 27.6Q74.35 31.45 68.8 31.45 60.25 31.45 58.3 24.25L86.35 24.25Q86.75 21.95 86.75 20.2M73.75 10.8Q76.3 12.8 77.15 16.6L58.15 16.6Q59 12.9 61.55 10.9 64.1 8.85 67.9 8.85 71.3 8.85 73.75 10.8Z"/><g mask="url(#mask_)" id="Layer32_0_FILL"><path fill="#C50017" stroke="none" d="M39.8 1.05L30.2 1.05 30.2 5.6Q25.95 0 18.05 0 10.7 0 5.25 5.9 4.1 7.2 3.2 8.6 1.6 11.1 .8 14 0 16.9 0 20.2 0 23.55 .8 26.5 1.6 29.4 3.2 31.9 4.1 33.3 5.25 34.6 10.6 40.4 18.05 40.4 25.85 40.4 30.2 34.8L30.2 39.35 39.8 39.35 39.8 1.05M27.25 12.45Q30.2 15.4 30.2 20.2 30.2 25 27.25 28 24.35 31 19.85 31 15.35 31 12.5 28 9.6 24.95 9.6 20.2 9.6 15.45 12.5 12.45 15.35 9.4 19.85 9.4 24.35 9.4 27.25 12.45M86.75 20.2Q86.75 11.7 81.4 5.8 76.2 0 67.9 0 59.2 0 53.75 5.8 48.25 11.6 48.25 20.2 48.25 29 53.85 34.65 59.4 40.4 68.65 40.4 79.4 40.4 84.9 32.2L77.15 27.6Q74.35 31.45 68.8 31.45 60.25 31.45 58.3 24.25L86.35 24.25Q86.75 21.95 86.75 20.2M73.75 10.8Q76.3 12.8 77.15 16.6L58.15 16.6Q59 12.9 61.55 10.9 64.1 8.85 67.9 8.85 71.3 8.85 73.75 10.8Z"/></g><mask id="mask_"><g><g id="Tween-11" transform="matrix(.07 0 0 .07 43.65 20.9)"><animateTransform attributeName="transform" additive="replace" type="translate" begin="1.958s" repeatCount="indefinite" dur="3s" keyTimes="0;.319;.653;.986;1" values="43.652,20.902;43.65,20.9;43.65,20.9;43.652,20.902;43.652,20.902" keySplines=".419 0 .51 1;0 0 1 1;.419 0 .51 1;.419 0 .51 1" calcMode="spline"/><animateTransform attributeName="transform" additive="sum" type="scale" begin="1.958s" repeatCount="indefinite" dur="3s" keyTimes="0;.319;.653;.986;1" values=".07,.07;1,1;1,1;.07,.07;.07,.07" keySplines=".419 0 .51 1;0 0 1 1;.419 0 .51 1;.419 0 .51 1" calcMode="spline"/><animateTransform attributeName="transform" additive="sum" type="translate" begin="1.958s" repeatCount="indefinite" dur="3s" keyTimes="0;.319;.653;.986;1" values="-.75,-.75;0,0;0,0;-.75,-.75;-.75,-.75" keySplines=".419 0 .51 1;0 0 1 1;.419 0 .51 1;.419 0 .51 1" calcMode="spline"/><g id="Tween 9_0.0"><g><g id="Layer34_0_FILL"><path fill="#FFF" stroke="none" d="M32.5 -32.5Q19.05 -46 0 -46 -19.05 -46 -32.55 -32.5 -46 -19.05 -46 0 -46 19.05 -32.55 32.5 -19.05 46 0 46 19.05 46 32.5 32.5 46 19.05 46 0 46 -19.05 32.5 -32.5Z" fill-opacity="1"/></g></g></g></g></g></mask></g><use xlink:href="#Symbol-3" transform="translate(-237.7 -27.6)"/><use xlink:href="#Symbol-3" transform="translate(-14.05 -27.6)"/></g><animate attributeName="display" repeatCount="indefinite" dur="12.958s" keyTimes="0;.151;1" values="none;inline;inline"/></g><g display="none"><g id="Symbol-5o96d311" transform="translate(0 .25)"><g display="none" id="Symbol 5_2.23"><path id="Layer26_0_1_STROKES" stroke="#C50017" stroke-width="1" stroke-linejoin="round" stroke-linecap="round" fill="none" d="M383.8 97.25L386.8 97.25"/><animate attributeName="display" repeatCount="indefinite" dur="12.958s" keyTimes="0;.383;.386;.614;.617;.846;.849;1" values="none;inline;none;inline;none;inline;none;none"/></g><g display="none" id="Symbol 5_2.22"><path id="Layer25_0_1_STROKES" stroke="#C50017" stroke-width="1" stroke-linejoin="round" stroke-linecap="round" fill="none" d="M382.25 97.25L386.8 97.25"/><animate attributeName="display" repeatCount="indefinite" dur="12.958s" keyTimes="0;.379;.383;.611;.614;.842;.846;1" values="none;inline;none;inline;none;inline;none;none"/></g><g display="none" id="Symbol 5_2.21"><path id="Layer24_0_1_STROKES" stroke="#C50017" stroke-width="1" stroke-linejoin="round" stroke-linecap="round" fill="none" d="M377.5 97.25L386.75 97.25"/><animate attributeName="display" repeatCount="indefinite" dur="12.958s" keyTimes="0;.376;.379;.608;.611;.839;.842;1" values="none;inline;none;inline;none;inline;none;none"/></g><g display="none" id="Symbol 5_2.20"><path id="Layer23_0_1_STROKES" stroke="#C50017" stroke-width="1" stroke-linejoin="round" stroke-linecap="round" fill="none" d="M369.75 97.25L386.8 97.25"/><animate attributeName="display" repeatCount="indefinite" dur="12.958s" keyTimes="0;.373;.376;.605;.608;.836;.839;1" values="none;inline;none;inline;none;inline;none;none"/></g><g display="none" id="Symbol 5_2.19"><path id="Layer22_0_1_STROKES" stroke="#C50017" stroke-width="1" stroke-linejoin="round" stroke-linecap="round" fill="none" d="M358.85 97.25L386.8 97.25"/><animate attributeName="display" repeatCount="indefinite" dur="12.958s" keyTimes="0;.37;.373;.601;.605;.833;.836;1" values="none;inline;none;inline;none;inline;none;none"/></g><g display="none" id="Symbol 5_2.18"><path id="Layer21_0_1_STROKES" stroke="#C50017" stroke-width="1" stroke-linejoin="round" stroke-linecap="round" fill="none" d="M344.8 97.25L386.8 97.25"/><animate attributeName="display" repeatCount="indefinite" dur="12.958s" keyTimes="0;.367;.37;.598;.601;.83;.833;1" values="none;inline;none;inline;none;inline;none;none"/></g><g display="none" id="Symbol 5_2.17"><path id="Layer20_0_1_STROKES" stroke="#C50017" stroke-width="1" stroke-linejoin="round" stroke-linecap="round" fill="none" d="M327.6 97.25L386.75 97.25"/><animate attributeName="display" repeatCount="indefinite" dur="12.958s" keyTimes="0;.363;.367;.595;.598;.826;.83;1" values="none;inline;none;inline;none;inline;none;none"/></g><g display="none" id="Symbol 5_2.16"><path id="Layer19_0_1_STROKES" stroke="#C50017" stroke-width="1" stroke-linejoin="round" stroke-linecap="round" fill="none" d="M307.4 97.25L386.8 97.25"/><animate attributeName="display" repeatCount="indefinite" dur="12.958s" keyTimes="0;.36;.363;.592;.595;.823;.826;1" values="none;inline;none;inline;none;inline;none;none"/></g><g display="none" id="Symbol 5_2.15"><path id="Layer18_0_1_STROKES" stroke="#C50017" stroke-width="1" stroke-linejoin="round" stroke-linecap="round" fill="none" d="M283.95 97.25L386.75 97.25"/><animate attributeName="display" repeatCount="indefinite" dur="12.958s" keyTimes="0;.357;.36;.588;.592;.82;.823;1" values="none;inline;none;inline;none;inline;none;none"/></g><g display="none" id="Symbol 5_2.14"><path id="Layer17_0_1_STROKES" stroke="#C50017" stroke-width="1" stroke-linejoin="round" stroke-linecap="round" fill="none" d="M257.45 97.25L386.75 97.25"/><animate attributeName="display" repeatCount="indefinite" dur="12.958s" keyTimes="0;.354;.357;.585;.588;.817;.82;1" values="none;inline;none;inline;none;inline;none;none"/></g><g display="none" id="Symbol 5_2.13"><path id="Layer16_0_1_STROKES" stroke="#C50017" stroke-width="1" stroke-linejoin="round" stroke-linecap="round" fill="none" d="M227.9 97.25L386.8 97.25"/><animate attributeName="display" repeatCount="indefinite" dur="12.958s" keyTimes="0;.35;.354;.582;.585;.814;.817;1" values="none;inline;none;inline;none;inline;none;none"/></g><g display="none" id="Symbol 5_2.12"><path id="Layer15_0_1_STROKES" stroke="#C50017" stroke-width="1" stroke-linejoin="round" stroke-linecap="round" fill="none" d="M195.1 97.25L386.75 97.25"/><animate attributeName="display" repeatCount="indefinite" dur="12.958s" keyTimes="0;.347;.35;.579;.582;.81;.814;1" values="none;inline;none;inline;none;inline;none;none"/></g><g display="none" id="Symbol 5_2.11"><path id="Layer14_0_1_STROKES" stroke="#C50017" stroke-width="1" stroke-linejoin="round" stroke-linecap="round" fill="none" d="M170.8 97.25L332.1 97.25"/><animate attributeName="display" repeatCount="indefinite" dur="12.958s" keyTimes="0;.344;.347;.576;.579;.807;.81;1" values="none;inline;none;inline;none;inline;none;none"/></g><g display="none" id="Symbol 5_2.10"><path id="Layer13_0_1_STROKES" stroke="#C50017" stroke-width="1" stroke-linejoin="round" stroke-linecap="round" fill="none" d="M148.55 97.25L282.15 97.25"/><animate attributeName="display" repeatCount="indefinite" dur="12.958s" keyTimes="0;.341;.344;.572;.576;.804;.807;1" values="none;inline;none;inline;none;inline;none;none"/></g><g display="none" id="Symbol 5_2.9"><path id="Layer12_0_1_STROKES" stroke="#C50017" stroke-width="1" stroke-linejoin="round" stroke-linecap="round" fill="none" d="M128.35 97.25L236.9 97.25"/><animate attributeName="display" repeatCount="indefinite" dur="12.958s" keyTimes="0;.338;.341;.569;.572;.801;.804;1" values="none;inline;none;inline;none;inline;none;none"/></g><g display="none" id="Symbol 5_2.8"><path id="Layer11_0_1_STROKES" stroke="#C50017" stroke-width="1" stroke-linejoin="round" stroke-linecap="round" fill="none" d="M110.3 97.25L196.4 97.25"/><animate attributeName="display" repeatCount="indefinite" dur="12.958s" keyTimes="0;.334;.338;.566;.569;.797;.801;1" values="none;inline;none;inline;none;inline;none;none"/></g><g display="none" id="Symbol 5_2.7"><path id="Layer10_0_1_STROKES" stroke="#C50017" stroke-width="1" stroke-linejoin="round" stroke-linecap="round" fill="none" d="M94.4 97.25L160.7 97.25"/><animate attributeName="display" repeatCount="indefinite" dur="12.958s" keyTimes="0;.331;.334;.563;.566;.794;.797;1" values="none;inline;none;inline;none;inline;none;none"/></g><g display="none" id="Symbol 5_2.6"><path id="Layer9_0_1_STROKES" stroke="#C50017" stroke-width="1" stroke-linejoin="round" stroke-linecap="round" fill="none" d="M80.6 97.25L129.8 97.25"/><animate attributeName="display" repeatCount="indefinite" dur="12.958s" keyTimes="0;.328;.331;.559;.563;.791;.794;1" values="none;inline;none;inline;none;inline;none;none"/></g><g display="none" id="Symbol 5_2.5"><path id="Layer8_0_1_STROKES" stroke="#C50017" stroke-width="1" stroke-linejoin="round" stroke-linecap="round" fill="none" d="M68.9 97.25L103.6 97.25"/><animate attributeName="display" repeatCount="indefinite" dur="12.958s" keyTimes="0;.325;.328;.556;.559;.788;.791;1" values="none;inline;none;inline;none;inline;none;none"/></g><g display="none" id="Symbol 5_2.4"><path id="Layer7_0_1_STROKES" stroke="#C50017" stroke-width="1" stroke-linejoin="round" stroke-linecap="round" fill="none" d="M59.35 97.25L82.15 97.25"/><animate attributeName="display" repeatCount="indefinite" dur="12.958s" keyTimes="0;.322;.325;.553;.556;.785;.788;1" values="none;inline;none;inline;none;inline;none;none"/></g><g display="none" id="Symbol 5_2.3"><path id="Layer6_0_1_STROKES" stroke="#C50017" stroke-width="1" stroke-linejoin="round" stroke-linecap="round" fill="none" d="M51.95 97.25L65.5 97.25"/><animate attributeName="display" repeatCount="indefinite" dur="12.958s" keyTimes="0;.318;.322;.55;.553;.781;.785;1" values="none;inline;none;inline;none;inline;none;none"/></g><g display="none" id="Symbol 5_2.2"><path id="Layer5_0_1_STROKES" stroke="#C50017" stroke-width="1" stroke-linejoin="round" stroke-linecap="round" fill="none" d="M46.65 97.25L53.6 97.25"/><animate attributeName="display" repeatCount="indefinite" dur="12.958s" keyTimes="0;.315;.318;.547;.55;.778;.781;1" values="none;inline;none;inline;none;inline;none;none"/></g><g display="none" id="Symbol 5_2.1"><path id="Layer4_0_1_STROKES" stroke="#C50017" stroke-width="1" stroke-linejoin="round" stroke-linecap="round" fill="none" d="M43.45 97.25L46.5 97.25"/><animate attributeName="display" repeatCount="indefinite" dur="12.958s" keyTimes="0;.312;.315;.543;.547;.775;.778;1" values="none;inline;none;inline;none;inline;none;none"/></g><g display="none" id="Symbol 5_2.0"><path id="Layer3_0_1_STROKES" stroke="#C50017" stroke-width="1" stroke-linejoin="round" stroke-linecap="round" fill="none" d="M42.4 97.25L44.1 97.25"/><animate attributeName="display" repeatCount="indefinite" dur="12.958s" keyTimes="0;.309;.312;.54;.543;.772;.775;1" values="none;inline;none;inline;none;inline;none;none"/></g><g display="none" id="Symbol 5_1"><path id="Layer2_0_1_STROKES" stroke="#C50017" stroke-width=".1" stroke-linejoin="round" stroke-linecap="round" fill="none" d="M391.25 81.55L513.3 81.65 513.3 92.4 387.35 92.4 391.25 81.55Z"/><animate attributeName="display" repeatCount="indefinite" dur="12.958s" keyTimes="0;.309;1" values="none;inline;inline"/></g><g display="none"><g id="Tween-10" transform="translate(450.3 86.95)"><animate attributeName="opacity" repeatCount="indefinite" dur="12.958s" keyTimes="0;.347;.383;.46;.537;.579;.614;.691;.769;.81;.846;.923;1" values="0;0;1;1;0;0;1;1;0;0;1;1;0"/><path fill="#C50017" stroke="none" d="M63 5.45L63 -5.3 -59.05 -5.4 -62.95 5.45 63 5.45Z"/></g><animate attributeName="display" repeatCount="indefinite" dur="12.958s" keyTimes="0;.347;.54;.579;.772;.81;1" values="none;inline;none;inline;none;inline;inline"/></g></g><animate attributeName="display" repeatCount="indefinite" dur="12.958s" keyTimes="0;.309;1" values="none;inline;inline"/></g></g></svg>