<svg width="1594" height="396" viewBox="0 0 1594 396" fill="none" xmlns="http://www.w3.org/2000/svg">
<g clip-path="url(#clip0_206_2)">
<path d="M64.6343 56.0195H108.966C122.549 56.0195 133.294 58.5133 141.2 63.501C151.653 70.0804 156.879 79.5516 156.879 91.9146C156.879 103.004 152.661 111.547 144.224 117.542C139.343 121.044 131.543 123.804 120.825 125.82V126.377C129.208 129.189 136.239 134.999 141.916 143.807C148.495 154.101 156.561 168.851 166.111 188.059H147.726C137.91 165.349 129.739 150.201 123.212 142.613C116.262 134.601 107.056 130.595 95.5947 130.595H79.5972V188.059H64.6343V56.0195ZM79.5972 68.5947V118.498H103.713C114.962 118.498 123.823 116.428 130.296 112.29C137.247 107.886 140.722 101.306 140.722 92.5513C140.722 76.5802 129.261 68.5947 106.339 68.5947H79.5972ZM171.38 56.0195H186.184V113.245H258.611V56.0195H273.414V188.059H258.611V125.979H186.184V188.059H171.38V56.0195ZM343.31 53.4727C355.726 53.4727 366.842 56.7093 376.658 63.1826C387.376 70.1865 395.229 80.1087 400.217 92.9492C403.613 101.81 405.311 111.494 405.311 122C405.311 135.901 402.445 148.264 396.715 159.088C390.931 170.019 382.787 178.243 372.281 183.761C363.473 188.377 353.71 190.686 342.992 190.686C328.4 190.686 315.799 186.52 305.187 178.19C295.53 170.655 288.685 160.548 284.652 147.866C282.053 139.854 280.753 131.232 280.753 122C280.753 100.139 287.491 82.7617 300.968 69.8682C312.376 58.9378 326.49 53.4727 343.31 53.4727ZM342.833 66.3662C332.91 66.3662 324.129 69.4172 316.488 75.519C303.648 85.7596 297.228 101.28 297.228 122.079C297.228 133.805 299.43 144.019 303.834 152.721C307.336 159.619 312.005 165.164 317.841 169.355C325.164 174.661 333.574 177.314 343.071 177.314C357.238 177.314 368.62 171.743 377.215 160.601C384.962 150.625 388.836 137.785 388.836 122.079C388.836 105.896 384.75 92.7104 376.579 82.5229C367.93 71.7518 356.681 66.3662 342.833 66.3662ZM412.251 56.0195H433.103L483.643 133.938C489.851 143.542 495.767 153.968 501.392 165.217H501.869C501.02 143.303 500.596 128.154 500.596 119.771V56.0195H515.24V188.059H501.392L442.415 97.0879C437.322 89.2881 432.042 80.2148 426.577 69.8682H425.781C426.63 82.7087 427.055 98.4674 427.055 117.145V188.059H412.251V56.0195ZM524.409 56.0195H572.64V67.5601H556.006V176.519H572.64V188.059H524.409V176.519H541.043V67.5601H524.409V56.0195ZM575.044 56.0195H593.827L631.632 110.459L669.438 56.0195H688.221L641.104 120.885L692.439 188.059H673.019L631.632 130.834L590.246 188.059H570.826L622.161 120.885L575.044 56.0195ZM735.927 56.0195H751.288V174.529H814.88V188.059H735.927V56.0195ZM854.532 55.3828H869.892L922.183 188.059H905.549L890.745 149.14H833.679L818.875 188.059H802.241L854.532 55.3828ZM886.368 136.564L872.519 100.033C867.478 87.0861 864.162 77.3231 862.57 70.7437H861.933C860.342 76.9517 857.025 86.7147 851.985 100.033L838.136 136.564H886.368ZM925.542 56.0195H966.451C978.071 56.0195 987.41 57.3195 994.466 59.9194C1000.62 62.201 1005.58 65.5703 1009.35 70.0273C1013.86 75.3333 1016.11 81.7005 1016.11 89.1289C1016.11 98.1491 1013.09 105.339 1007.04 110.698C1002.43 114.783 996.217 117.596 988.418 119.134V119.612C997.809 121.416 1005.26 124.414 1010.78 128.605C1018.37 134.389 1022.16 142.003 1022.16 151.448C1022.16 165.509 1015.96 175.617 1003.54 181.771C994.997 185.963 984.306 188.059 971.465 188.059H925.542V56.0195ZM940.345 68.2764V113.245H964.302C973.11 113.245 980.724 111.892 987.144 109.186C995.687 105.577 999.958 99.5286 999.958 91.0391C999.958 75.8639 988.444 68.2764 965.416 68.2764H940.345ZM940.345 125.183V175.643H969.555C979.53 175.643 987.33 174.184 992.954 171.266C995.183 170.151 997.199 168.719 999.003 166.968C1003.46 162.564 1005.69 157.152 1005.69 150.731C1005.69 142.242 1001.47 135.769 993.034 131.312C985.181 127.226 975.869 125.183 965.098 125.183H940.345ZM1032.92 158.054C1044.23 170.788 1058.53 177.155 1075.82 177.155C1084.79 177.155 1091.74 175.298 1096.68 171.584C1102.3 167.339 1105.11 161.635 1105.11 154.472C1105.11 147.256 1102.35 141.472 1096.83 137.122C1092.32 133.567 1084.55 129.905 1073.52 126.138L1064.84 123.193C1054.12 119.532 1046.38 115.845 1041.6 112.13C1034.28 106.4 1030.62 98.7327 1030.62 89.1289C1030.62 78.4108 1034.38 69.9212 1041.92 63.6602C1049.88 56.9746 1060.44 53.6318 1073.59 53.6318C1089.72 53.6318 1103.97 58.5133 1116.33 68.2764L1108.38 79.6577C1098.56 70.7967 1086.94 66.3662 1073.52 66.3662C1064.6 66.3662 1057.76 68.4355 1052.98 72.5742C1048.74 76.2884 1046.61 81.3291 1046.61 87.6963C1046.61 92.9492 1048.5 97.3267 1052.26 100.829C1056.4 104.702 1063.91 108.416 1074.79 111.971L1084.26 115.075C1097.1 119.267 1106.39 124.255 1112.12 130.038C1118.43 136.405 1121.59 144.285 1121.59 153.676C1121.59 165.615 1117.05 174.953 1107.98 181.692C1100.07 187.582 1089.25 190.526 1075.5 190.526C1053.8 190.526 1036.56 183.231 1023.77 168.639L1032.92 158.054ZM58.1079 219.02H106.339V230.56H89.7051V339.519H106.339V351.059H58.1079V339.519H74.7422V230.56H58.1079V219.02ZM102.137 219.02H212.289V232.391H164.535V351.059H149.891V232.391H102.137V219.02ZM251.957 321.054C263.259 333.788 277.558 340.155 294.856 340.155C303.823 340.155 310.774 338.298 315.708 334.584C321.333 330.339 324.145 324.635 324.145 317.472C324.145 310.256 321.386 304.472 315.868 300.122C311.357 296.567 303.584 292.905 292.548 289.138L283.872 286.193C273.154 282.532 265.408 278.845 260.632 275.13C253.31 269.4 249.649 261.733 249.649 252.129C249.649 241.411 253.416 232.921 260.951 226.66C268.91 219.975 279.468 216.632 292.627 216.632C308.758 216.632 323.004 221.513 335.367 231.276L327.408 242.658C317.592 233.797 305.972 229.366 292.548 229.366C283.634 229.366 276.789 231.436 272.014 235.574C267.769 239.288 265.646 244.329 265.646 250.696C265.646 255.949 267.53 260.327 271.297 263.829C275.436 267.702 282.944 271.416 293.821 274.971L303.292 278.075C316.133 282.267 325.418 287.255 331.149 293.038C337.463 299.405 340.62 307.285 340.62 316.676C340.62 328.615 336.083 337.953 327.01 344.692C319.104 350.582 308.28 353.526 294.538 353.526C272.836 353.526 255.592 346.231 242.804 331.639L251.957 321.054ZM391.175 252.447C404.281 252.447 415.371 256.904 424.444 265.818C434.048 275.21 438.85 287.573 438.85 302.907C438.85 311.874 437.205 319.939 433.915 327.103C429.67 336.282 423.224 343.233 414.575 347.955C407.412 351.882 399.506 353.845 390.857 353.845C375.258 353.845 362.895 348.088 353.768 336.574C346.605 327.554 343.024 316.331 343.024 302.907C343.024 285.397 349.126 271.894 361.329 262.396C369.872 255.764 379.821 252.447 391.175 252.447ZM390.778 264.704C381.068 264.704 373.056 268.737 366.741 276.802C361.276 283.753 358.544 292.534 358.544 303.146C358.544 310.681 359.95 317.34 362.762 323.123C365.415 328.694 369.156 333.072 373.984 336.255C379.078 339.598 384.755 341.27 391.016 341.27C398.604 341.27 405.289 338.802 411.073 333.868C419.244 326.811 423.33 316.544 423.33 303.066C423.33 291.659 420.173 282.373 413.859 275.21C407.651 268.206 399.957 264.704 390.778 264.704ZM448.098 211.697H463.061V335.778C463.061 337.847 464.043 338.882 466.006 338.882H478.74L477.069 351.059H461.947C452.714 351.059 448.098 346.549 448.098 337.529V211.697ZM483.372 254.915H498.176V313.731C498.176 331.4 505.074 340.235 518.869 340.235C524.335 340.235 529.694 338.537 534.947 335.141C541.844 330.631 547.15 324.158 550.865 315.721V254.915H565.987V351.059H551.66V333.47C546.832 339.996 541.128 344.957 534.549 348.353C528.659 351.377 522.637 352.89 516.482 352.89C504.331 352.89 495.364 348.804 489.58 340.633C485.442 334.796 483.372 326.492 483.372 315.721V254.915ZM604.842 225.387V254.915H634.609V266.296H604.842V326.147C604.842 330.711 605.24 333.974 606.036 335.937C607.416 339.386 610.201 341.11 614.393 341.11C619.911 341.11 625.456 339.2 631.027 335.38L635.166 345.965C628.109 350.688 620.389 353.049 612.005 353.049C597.573 353.049 590.357 344.718 590.357 328.058V266.296H567.674V254.915H590.357V233.027L604.842 225.387ZM643.061 216.632H660.969V234.38H643.061V216.632ZM644.494 254.915H659.457V351.059H644.494V254.915ZM717.494 252.447C730.6 252.447 741.689 256.904 750.762 265.818C760.366 275.21 765.168 287.573 765.168 302.907C765.168 311.874 763.523 319.939 760.234 327.103C755.989 336.282 749.542 343.233 740.893 347.955C733.73 351.882 725.824 353.845 717.175 353.845C701.576 353.845 689.213 348.088 680.087 336.574C672.924 327.554 669.342 316.331 669.342 302.907C669.342 285.397 675.444 271.894 687.648 262.396C696.19 255.764 706.139 252.447 717.494 252.447ZM717.096 264.704C707.386 264.704 699.374 268.737 693.06 276.802C687.595 283.753 684.862 292.534 684.862 303.146C684.862 310.681 686.268 317.34 689.08 323.123C691.733 328.694 695.474 333.072 700.302 336.255C705.396 339.598 711.074 341.27 717.335 341.27C724.922 341.27 731.608 338.802 737.391 333.868C745.563 326.811 749.648 316.544 749.648 303.066C749.648 291.659 746.491 282.373 740.177 275.21C733.969 268.206 726.275 264.704 717.096 264.704ZM786.673 254.915V272.186C791.555 265.818 797.179 260.99 803.546 257.7C809.436 254.623 815.405 253.084 821.454 253.084C829.413 253.084 836.231 255.047 841.909 258.974C850.504 264.969 854.802 275.396 854.802 290.252V351.059H839.999V292.083C839.999 274.679 833.18 265.978 819.544 265.978C814.291 265.978 809.197 267.463 804.263 270.435C796.834 274.785 791.13 281.285 787.151 289.934V351.059H772.188V254.915H786.673ZM870.418 328.217C880.287 336.388 891.403 340.474 903.766 340.474C918.039 340.474 925.176 335.751 925.176 326.307C925.176 321.956 922.735 318.242 917.853 315.164C914.723 313.201 909.841 311.052 903.209 308.717L894.931 305.772C885.752 302.536 879.093 299.22 874.954 295.824C869.861 291.632 867.314 285.981 867.314 278.871C867.314 270.382 870.948 263.643 878.218 258.655C884.213 254.517 891.721 252.447 900.742 252.447C913.9 252.447 926.025 256.268 937.114 263.908L929.473 275.29C920.612 268.551 911.3 265.182 901.537 265.182C897.187 265.182 893.499 265.978 890.474 267.569C885.646 270.01 883.232 273.645 883.232 278.473C883.232 282.293 884.93 285.291 888.326 287.467C890.448 288.846 895.25 290.916 902.731 293.675L912.839 297.416C922.019 300.864 928.837 304.526 933.294 308.399C938.759 313.121 941.492 318.984 941.492 325.988C941.492 335.115 937.512 342.331 929.553 347.637C923.451 351.669 914.484 353.686 902.652 353.686C887.53 353.686 874.132 348.963 862.459 339.519L870.418 328.217ZM989.755 219.02H1033.93C1047.09 219.02 1057.83 221.248 1066.16 225.705C1070.19 227.881 1073.59 230.719 1076.35 234.221C1081.71 240.96 1084.39 248.972 1084.39 258.257C1084.39 285.795 1067.28 299.564 1033.05 299.564H1004.88V351.059H989.755V219.02ZM1004.88 231.754V286.989H1029.95C1043.05 286.989 1052.55 284.973 1058.44 280.94C1064.75 276.696 1067.91 269.214 1067.91 258.496C1067.91 248.839 1064.3 241.756 1057.09 237.246C1051.25 233.584 1043.08 231.754 1032.57 231.754H1004.88ZM1153.01 290.252V287.148C1153.01 279.508 1150.91 273.804 1146.72 270.037C1142.9 266.588 1137.01 264.863 1129.05 264.863C1117.38 264.863 1106.66 268.604 1096.9 276.085L1090.37 265.5C1101.73 256.904 1114.7 252.606 1129.29 252.606C1142.56 252.606 1152.56 256.188 1159.3 263.351C1164.87 269.294 1167.65 277.465 1167.65 287.865V322.407C1167.65 334.611 1169.56 344.161 1173.38 351.059H1159.06C1156.99 346.655 1155.45 341.004 1154.44 334.106H1153.96C1150.94 339.519 1146.48 344.135 1140.59 347.955C1134.6 351.882 1127.2 353.845 1118.39 353.845C1109.21 353.845 1101.59 351.139 1095.55 345.727C1089.18 339.996 1085.99 332.7 1085.99 323.839C1085.99 313.227 1090.64 304.95 1099.92 299.007C1109.1 293.171 1123.08 290.252 1141.87 290.252H1153.01ZM1153.01 301.554H1142.74C1115.15 301.554 1101.36 308.93 1101.36 323.68C1101.36 328.456 1102.84 332.435 1105.81 335.619C1109.42 339.386 1114.38 341.27 1120.7 341.27C1128.87 341.27 1136.03 338.67 1142.19 333.47C1149.4 327.421 1153.01 320.258 1153.01 311.98V301.554ZM1195.29 281.498H1195.92C1202.66 262.237 1213.09 252.606 1227.2 252.606C1231.61 252.606 1235.69 253.482 1239.46 255.233L1234.84 268.922C1232.08 267.702 1228.85 267.092 1225.13 267.092C1211.66 267.092 1202.19 278.34 1196.72 300.838V351.059H1181.76V254.915H1196.08L1195.29 281.498ZM1262.8 225.387V254.915H1292.56V266.296H1262.8V326.147C1262.8 330.711 1263.19 333.974 1263.99 335.937C1265.37 339.386 1268.15 341.11 1272.35 341.11C1277.86 341.11 1283.41 339.2 1288.98 335.38L1293.12 345.965C1286.06 350.688 1278.34 353.049 1269.96 353.049C1255.53 353.049 1248.31 344.718 1248.31 328.058V266.296H1225.63V254.915H1248.31V233.027L1262.8 225.387ZM1314.07 254.915V272.186C1318.95 265.818 1324.57 260.99 1330.94 257.7C1336.83 254.623 1342.8 253.084 1348.85 253.084C1356.81 253.084 1363.63 255.047 1369.3 258.974C1377.9 264.969 1382.2 275.396 1382.2 290.252V351.059H1367.39V292.083C1367.39 274.679 1360.57 265.978 1346.94 265.978C1341.69 265.978 1336.59 267.463 1331.66 270.435C1324.23 274.785 1318.52 281.285 1314.55 289.934V351.059H1299.58V254.915H1314.07ZM1481.78 304.579H1407.68C1407.89 314.66 1410.25 322.699 1414.76 328.694C1420.87 336.812 1429.73 340.872 1441.35 340.872C1453.6 340.872 1463.9 335.566 1472.23 324.954L1481.46 334.743C1470.9 347.424 1457.29 353.765 1440.63 353.765C1424.02 353.765 1411.26 348.114 1402.35 336.812C1395.45 328.058 1392 317.074 1392 303.862C1392 292.507 1394.5 282.612 1399.48 274.175C1404.36 266.004 1411 260.035 1419.38 256.268C1425.22 253.615 1431.43 252.288 1438 252.288C1453.29 252.288 1465.04 258.39 1473.26 270.594C1478.94 279.03 1481.78 288.952 1481.78 300.36V304.579ZM1466.18 293.197C1465.54 285.344 1463.05 278.924 1458.7 273.937C1453.29 267.675 1446.28 264.545 1437.69 264.545C1431.43 264.545 1425.72 266.535 1420.57 270.514C1413.78 275.714 1409.7 283.275 1408.32 293.197H1466.18ZM1506.87 281.498H1507.5C1514.24 262.237 1524.67 252.606 1538.78 252.606C1543.19 252.606 1547.27 253.482 1551.04 255.233L1546.42 268.922C1543.66 267.702 1540.43 267.092 1536.71 267.092C1523.23 267.092 1513.76 278.34 1508.3 300.838V351.059H1493.34V254.915H1507.66L1506.87 281.498Z" fill="url(#paint0_linear_206_2)"/>
</g>
<defs>
<linearGradient id="paint0_linear_206_2" x1="471" y1="-7.99988" x2="2586.99" y2="808.06" gradientUnits="userSpaceOnUse">
<stop/>
<stop offset="1" stop-color="#F83838" stop-opacity="0.88"/>
</linearGradient>
<clipPath id="clip0_206_2">
<rect width="1594" height="396" fill="white"/>
</clipPath>
</defs>
</svg>
