<svg width="715" height="144" viewBox="0 0 715 144" fill="none" xmlns="http://www.w3.org/2000/svg">
<path d="M189 97.5825C211.333 70.1791 247 28.0825 247 28.0825C247 28.0825 221.499 69.4226 200.5 92.0825C189.328 104.138 170 121.083 170 121.083C170 121.083 181.544 106.731 189 97.5825Z" fill="#F86F1D"/>
<path d="M200 81.0825C220.677 62.9244 247 28.5825 247 28.5825C247 28.5825 225.123 61.912 207 79.5825C194.576 91.6962 186.12 96.8313 172.5 107.583C160.698 116.899 142 131.083 142 131.083C142 131.083 147.853 120.936 152.5 115.083C166.683 97.2155 182.859 96.1355 200 81.0825Z" fill="#F8822A"/>
<path d="M246.5 29.0825C246.5 29.0825 213.605 72.496 185 89.5C157.862 105.632 140.596 107.633 109.5 113.083C80.5863 118.149 34.5 118.083 34.5 118.083C34.5 118.083 70.8339 122.048 94 120.083C123.824 117.553 148.643 113.213 175.5 100C198.277 88.794 202.982 81.4531 220.5 63.0825C232.035 50.9857 246.5 29.0825 246.5 29.0825Z" fill="#FA4806"/>
<path d="M188.5 91.5825C214.89 71.3102 247.007 28.5825 247.007 28.5825C247.007 28.5825 230.021 52.2046 220 65.5825C204.781 85.8986 187.5 97.0825 183.5 99.0825C179.5 101.083 136.815 121.038 107.5 127.083C84.7297 131.778 71.9998 131.583 71.9998 131.583C71.9998 131.583 88.3896 125.038 116.5 116.583C146.732 107.488 163.464 110.815 188.5 91.5825Z" fill="#FA4606"/>
<path d="M4 93.0825C4 93.0825 44 113.583 84 113.583C124 113.583 151 105.937 160 102.583C191.973 90.665 207.176 78.8882 229.5 53.0825C237.371 43.9841 247.5 28.0825 247.5 28.0825C247.5 28.0825 229.603 52.6578 201 71.5825C185.563 81.7961 174.255 89.0488 153.5 95.0825C127.701 102.583 118 102.583 84 102.583C50 102.583 4 93.0825 4 93.0825Z" fill="#EF8029"/>
<path d="M44 95.0825C59.2658 102.779 69.4583 104.217 86.5 105.583C101.234 106.763 112.141 106.558 123.898 103.97C115.156 103.759 106.764 101.601 96.5 98.0825C86.8051 94.7586 80.4607 91.1646 73.662 86.1687C49.5202 86.531 27.5 84.5825 27.5 84.5825C27.5 84.5825 37.1801 91.644 44 95.0825Z" fill="#FB7F1B"/>
<path d="M102.5 66.5825C83.847 70.0723 54 69.5825 54 69.5825C54 69.5825 59.923 75.2686 64 78.5825C67.5326 81.454 70.6421 83.9496 73.662 86.1687C80.4607 91.1646 86.8051 94.7586 96.5 98.0825C106.764 101.601 115.156 103.759 123.898 103.97C128.581 102.939 135.567 103.031 141.737 101.819C142.643 101.592 143.564 101.347 144.5 101.083C145.179 100.891 145.846 100.698 146.5 100.503C160.065 96.465 168.436 91.6561 178 80.5825C185.877 71.4622 192.176 63.3536 197 52.5C201 43.5 200.55 32.4246 192 31.5825C188.983 31.2854 184.5 33.5825 184.5 33.5825C184.5 33.5825 168.304 42.6489 157.5 47.5825C136.829 57.0219 124.837 62.4035 102.5 66.5825Z" fill="#F6A243"/>
<path d="M50.5 49.0826C50.5 49.0826 81.0152 47.9975 99.5 43.5825C125.662 37.3339 144.5 23.5826 162.5 15.0826C180.5 6.58257 201 3.58251 203.5 8.08252C206 12.5825 201.5 21.5826 200.5 23.5826C199.5 25.5826 184.142 53.9382 169 69.5826C158.48 80.4514 153.421 89.5183 139 94.0826C112.436 102.49 98.752 77.3008 74.5 63.5826C64.9688 58.1912 50.5 49.0826 50.5 49.0826Z" fill="#FDBA51" fill-opacity="0.9"/>
<path d="M295.614 29.2617H318.731C325.815 29.2617 331.418 30.5622 335.541 33.1631C340.991 36.5941 343.717 41.533 343.717 47.98C343.717 53.7629 341.517 58.2176 337.118 61.3442C334.572 63.1704 330.505 64.6092 324.916 65.6606V65.9512C329.287 67.4176 332.953 70.4474 335.914 75.0405C339.345 80.4084 343.551 88.1004 348.531 98.1167H338.944C333.825 86.2743 329.564 78.3747 326.161 74.418C322.536 70.2399 317.735 68.1509 311.759 68.1509H303.417V98.1167H295.614V29.2617ZM303.417 35.8193V61.8423H315.992C321.858 61.8423 326.479 60.7632 329.854 58.605C333.479 56.3084 335.292 52.8774 335.292 48.312C335.292 39.9836 329.315 35.8193 317.362 35.8193H303.417ZM374.571 25.4434H382.291V56.9033C384.587 53.8044 387.271 51.3971 390.342 49.6816C393.58 47.9108 396.858 47.0254 400.179 47.0254C406.57 47.0254 411.26 49.1698 414.249 53.4585C416.462 56.6128 417.569 60.9292 417.569 66.4077V98.1167H409.766V67.3623C409.766 63.1012 409.074 59.9193 407.691 57.8164C405.92 55.1048 403.042 53.749 399.058 53.749C396.347 53.749 393.676 54.5376 391.048 56.1147C387.257 58.4113 384.338 61.7869 382.291 66.2417V98.1167H374.571V25.4434ZM469.797 46.6934C476.632 46.6934 482.415 49.0176 487.146 53.666C492.154 58.5635 494.658 65.0104 494.658 73.0068C494.658 77.6829 493.8 81.8887 492.085 85.624C489.871 90.4108 486.51 94.0355 482 96.498C478.264 98.5456 474.141 99.5693 469.631 99.5693C461.497 99.5693 455.05 96.5672 450.291 90.563C446.555 85.8592 444.688 80.0072 444.688 73.0068C444.688 63.876 447.869 56.8341 454.233 51.8813C458.688 48.4227 463.876 46.6934 469.797 46.6934ZM469.59 53.085C464.526 53.085 460.348 55.1878 457.056 59.3936C454.206 63.0182 452.781 67.5975 452.781 73.1313C452.781 77.0604 453.514 80.5329 454.98 83.5488C456.364 86.4541 458.315 88.7368 460.833 90.397C463.489 92.1401 466.449 93.0117 469.714 93.0117C473.671 93.0117 477.157 91.7251 480.173 89.1519C484.434 85.4718 486.565 80.1178 486.565 73.0898C486.565 67.141 484.919 62.2988 481.626 58.5635C478.389 54.9111 474.377 53.085 469.59 53.085ZM529.248 47.98V56.9863C531.793 53.666 534.726 51.1481 538.046 49.4326C541.118 47.8278 544.23 47.0254 547.385 47.0254C551.535 47.0254 555.091 48.0492 558.051 50.0967C562.534 53.2233 564.775 58.6603 564.775 66.4077V98.1167H557.055V67.3623C557.055 58.2868 553.5 53.749 546.389 53.749C543.649 53.749 540.993 54.5238 538.42 56.0732C534.546 58.3421 531.572 61.7316 529.497 66.2417V98.1167H521.694V47.98H529.248ZM596.833 28.0166H606.171V37.272H596.833V28.0166ZM597.58 47.98H605.382V98.1167H597.58V47.98ZM632.667 47.98H641.756L655.536 67.7773L669.273 47.98H678.363L660.267 72.3843L679.566 98.1167H670.228L655.536 77.2817L640.802 98.1167H631.463L650.763 72.3843L632.667 47.98Z" fill="white"/>
</svg>
