<svg width="264" height="142" viewBox="0 0 264 142" fill="none" xmlns="http://www.w3.org/2000/svg">
<path d="M189 97.5825C211.333 70.1791 247 28.0825 247 28.0825C247 28.0825 221.499 69.4226 200.5 92.0825C189.328 104.138 170 121.083 170 121.083C170 121.083 181.544 106.731 189 97.5825Z" fill="#F86F1D"/>
<path d="M200 81.0825C220.677 62.9244 247 28.5825 247 28.5825C247 28.5825 225.123 61.912 207 79.5825C194.576 91.6962 186.12 96.8313 172.5 107.583C160.698 116.899 142 131.083 142 131.083C142 131.083 147.853 120.936 152.5 115.083C166.683 97.2155 182.859 96.1355 200 81.0825Z" fill="#F8822A"/>
<path d="M246.5 29.0825C246.5 29.0825 213.605 72.496 185 89.5C157.862 105.632 140.596 107.633 109.5 113.083C80.5863 118.149 34.5 118.083 34.5 118.083C34.5 118.083 70.8339 122.048 94 120.083C123.824 117.553 148.643 113.213 175.5 100C198.277 88.794 202.982 81.4531 220.5 63.0825C232.035 50.9857 246.5 29.0825 246.5 29.0825Z" fill="#FA4806"/>
<path d="M188.5 91.5825C214.89 71.3102 247.007 28.5825 247.007 28.5825C247.007 28.5825 230.021 52.2046 220 65.5825C204.781 85.8986 187.5 97.0825 183.5 99.0825C179.5 101.083 136.815 121.038 107.5 127.083C84.7297 131.778 71.9998 131.583 71.9998 131.583C71.9998 131.583 88.3896 125.038 116.5 116.583C146.732 107.488 163.464 110.815 188.5 91.5825Z" fill="#FA4606"/>
<path d="M4 93.0825C4 93.0825 44 113.583 84 113.583C124 113.583 151 105.937 160 102.583C191.973 90.665 207.176 78.8882 229.5 53.0825C237.371 43.9841 247.5 28.0825 247.5 28.0825C247.5 28.0825 229.603 52.6578 201 71.5825C185.563 81.7961 174.255 89.0488 153.5 95.0825C127.701 102.583 118 102.583 84 102.583C50 102.583 4 93.0825 4 93.0825Z" fill="#EF8029"/>
<path d="M44 95.0825C59.2658 102.779 69.4583 104.217 86.5 105.583C101.234 106.763 112.141 106.558 123.898 103.97C115.156 103.759 106.764 101.601 96.5 98.0825C86.8051 94.7586 80.4607 91.1646 73.662 86.1687C49.5202 86.531 27.5 84.5825 27.5 84.5825C27.5 84.5825 37.1801 91.644 44 95.0825Z" fill="#FB7F1B"/>
<path d="M102.5 66.5825C83.847 70.0723 54 69.5825 54 69.5825C54 69.5825 59.923 75.2686 64 78.5825C67.5326 81.454 70.6421 83.9496 73.662 86.1687C80.4607 91.1646 86.8051 94.7586 96.5 98.0825C106.764 101.601 115.156 103.759 123.898 103.97C128.581 102.939 135.567 103.031 141.737 101.819C142.643 101.592 143.564 101.347 144.5 101.083C145.179 100.891 145.846 100.698 146.5 100.503C160.065 96.465 168.436 91.6561 178 80.5825C185.877 71.4622 192.176 63.3536 197 52.5C201 43.5 200.55 32.4246 192 31.5825C188.983 31.2854 184.5 33.5825 184.5 33.5825C184.5 33.5825 168.304 42.6489 157.5 47.5825C136.829 57.0219 124.837 62.4035 102.5 66.5825Z" fill="#F6A243"/>
<path d="M50.5 49.0826C50.5 49.0826 81.0152 47.9975 99.5 43.5825C125.662 37.3339 144.5 23.5826 162.5 15.0826C180.5 6.58257 201 3.58251 203.5 8.08252C206 12.5825 201.5 21.5826 200.5 23.5826C199.5 25.5826 184.142 53.9382 169 69.5826C158.48 80.4514 153.421 89.5183 139 94.0826C112.436 102.49 98.752 77.3008 74.5 63.5826C64.9688 58.1912 50.5 49.0826 50.5 49.0826Z" fill="#FDBA51" fill-opacity="0.9"/>
</svg>
